# Made using Asset Forge (www.assetforge.io) version 1.3 

mtllib Bullet.mtl 

g block_round_0

v -0.1 0.03 0.2598076
v -0.1 2.48157E-17 0.2598076
v -0.1414213 0.03 0.212132
v -0.1414213 2.48157E-17 0.212132
v 0.09999996 0.03 0.2598076
v 0.09999996 4.963141E-17 0.2598076
v 0.05176378 0.03 0.2897778
v 0.05176378 4.963141E-17 0.2897778
v 0.173205 4.963141E-17 0.15
v 0.1414213 4.963141E-17 0.2121321
v 0.173205 0.03 0.15
v 0.1414213 0.03 0.2121321
v 0.1931851 4.963141E-17 0.07764574
v 0.1931851 0.03 0.07764574
v -0.173205 2.48157E-17 0.15
v -0.173205 0.03 0.15
v -0.1931851 2.48157E-17 0.07764568
v -0.1931851 0.03 0.07764568
v -0.1999999 0 -0.3
v -0.1999999 0.03 -0.3
v -0.2 2.48157E-17 -3.72529E-08
v -0.2 0.03 -3.72529E-08
v -2.235174E-08 0.03 0.3
v -2.235174E-08 3.158362E-17 0.3
v -0.05176382 0.03 0.2897778
v -0.05176382 2.48157E-17 0.2897778
v 0.2 0 -0.3
v 0.2 4.963141E-17 2.235174E-08
v 0.2 0.03 -0.3
v 0.2 0.03 2.235174E-08
v -2.235174E-08 0.2 0.3
v -0.05176382 0.2 0.2897778
v 0.05176378 0.2 0.2897778
v 0.09999996 0.2 0.2598076
v -0.1 0.2 0.2598076
v 0.1414213 0.2 0.2121321
v -0.1414213 0.2 0.212132
v -0.173205 0.2 0.15
v 0.173205 0.2 0.15
v 0.1931851 0.2 0.07764574
v -0.1931851 0.2 0.07764568
v 0.2 0.2 2.235174E-08
v -0.2 0.2 -3.72529E-08
v 0.2 0.2 -0.3
v -0.1999999 0.2 -0.3
vn -0.2 0 0.5196153
vn -0.214995 0 0.505963
vn -0.2828427 0 0.4242641
vn 0.1999999 0 0.5196153
vn 0.1846203 0 0.5322683
vn 0.1035275 0 0.5795555
vn 0.08648872 0 0.5858065
vn 0.3548454 0 0.2769306
vn 0.2828426 0 0.4242642
vn 0.3464101 0 0.3
vn 0.2828426 0 0.4242641
vn 0.3905376 0 0.1297333
vn 0.3863702 0 0.1552915
vn -0.3373086 0 0.3224925
vn -0.3464101 0 0.3
vn -0.3814599 0 0.1805509
vn -0.3863702 0 0.1552913
vn -0.3999999 0 -5.960464E-08
vn -0.3991435 0 0.03924182
vn -5.960464E-08 0 0.6
vn -0.01753685 0 0.5994231
vn -0.1035276 0 0.5795555
vn -0.1203673 0 0.57219
vn 0.3999999 0 5.960464E-08
vn 0.3996197 0 0.02615508
vn 0.3991435 0 0.03924194
vn 5.960464E-08 0 -0.6
vn 0 0.2 0
vn 0.2149949 0 0.5059631
vn 0.1203672 0 0.57219
vn -0.08648886 0 0.5858065
vn -0.1846204 0 0.5322683
vn 0.01753673 0 0.5994231
vn 0.3984768 0 0.05231011
vn 0.3814599 0 0.180551
vn 0.3373086 0 0.3224925
vn -0.2828427 0 0.424264
vn -0.3905376 0 0.1297332
vn -0.3548454 0 0.2769305
vn 0 -0.2 0
vt 0.2598076 0.03
vt 0.2598076 2.48157E-17
vt 0.212132 0.03
vt 0.212132 2.48157E-17
vt 0.09999996 0.03
vt 0.09999996 4.963141E-17
vt 0.05176377 0.03
vt 0.05176377 4.963141E-17
vt -0.15 4.963141E-17
vt -0.2121321 4.963141E-17
vt -0.15 0.03
vt -0.2121321 0.03
vt -0.07764573 4.963141E-17
vt -0.07764573 0.03
vt 0.15 2.48157E-17
vt 0.15 0.03
vt 0.07764569 2.48157E-17
vt 0.07764569 0.03
vt -0.3 0
vt -0.3 0.03
vt -3.129243E-08 2.48157E-17
vt -3.129243E-08 0.03
vt -2.83122E-08 0.03
vt -2.83122E-08 3.158362E-17
vt -0.05176383 0.03
vt -0.05176383 2.48157E-17
vt 0.3 0
vt -1.639127E-08 4.963141E-17
vt 0.3 0.03
vt -1.639127E-08 0.03
vt -0.2598076 0.03
vt -0.2598076 4.963141E-17
vt -0.1 0.03
vt -0.1 2.48157E-17
vt -0.2 0
vt -0.2 0.03
vt 0.1999999 0
vt 0.1999999 0.03
vt 2.83122E-08 0.3
vt 0.05176383 0.2897778
vt -0.05176377 0.2897778
vt -0.09999996 0.2598076
vt 0.1 0.2598076
vt -0.1414213 0.2121321
vt 0.1414213 0.212132
vt 0.1732051 0.15
vt -0.173205 0.15
vt -0.1931851 0.07764573
vt 0.1931851 0.07764569
vt -0.2 1.639127E-08
vt 0.2 -3.129243E-08
vt -0.2 -0.3
vt 0.1999999 -0.3
vt 0.09999996 0.2
vt 0.05176377 0.2
vt -0.05176383 0.2
vt -0.1 0.2
vt -2.83122E-08 0.2
vt -1.639127E-08 0.2
vt -0.07764573 0.2
vt -0.15 0.2
vt -0.2121321 0.2
vt -0.3 0.2
vt -3.129243E-08 0.2
vt -0.2598076 0.2
vt 0.3 0.2
vt 0.2598076 0.2
vt 0.212132 0.2
vt 0.07764569 0.2
vt 0.15 0.2
vt 2.83122E-08 -0.3
vt -0.05176377 -0.2897778
vt 0.05176383 -0.2897778
vt 0.1 -0.2598076
vt -0.09999996 -0.2598076
vt 0.1414213 -0.212132
vt -0.1414213 -0.2121321
vt 0.1732051 -0.15
vt -0.173205 -0.15
vt 0.1931851 -0.07764569
vt -0.1931851 -0.07764573
vt 0.2 3.129243E-08
vt -0.2 -1.639127E-08
vt 0.1999999 0.3
vt -0.2 0.3
vt -0.2 0.2
vt 0.1999999 0.2

usemtl border (Instance)
usemap border (Instance)
f 3/3/3 2/2/2 1/1/1
f 2/2/2 3/3/3 4/4/3
f 7/7/6 6/6/5 5/5/4
f 6/6/5 7/7/6 8/8/7
f 11/11/10 10/10/9 9/9/8
f 10/10/9 11/11/10 12/12/11
f 14/14/13 9/9/8 13/13/12
f 9/9/8 14/14/13 11/11/10
f 3/3/3 15/15/14 4/4/3
f 15/15/14 3/3/3 16/16/15
f 16/16/15 17/17/16 15/15/14
f 17/17/16 16/16/15 18/18/17
f 21/21/19 20/20/18 19/19/18
f 20/20/18 21/21/19 22/22/19
f 25/25/22 24/24/21 23/23/20
f 24/24/21 25/25/22 26/26/23
f 29/29/24 28/28/25 27/27/24
f 28/28/25 29/29/24 30/30/26
f 5/31/4 10/10/9 12/12/11
f 10/10/9 5/31/4 6/32/5
f 18/18/17 21/21/19 17/17/16
f 21/21/19 18/18/17 22/22/19
f 1/33/1 26/26/23 25/25/22
f 26/26/23 1/33/1 2/34/2
f 23/23/20 8/8/7 7/7/6
f 8/8/7 23/23/20 24/24/21
f 30/30/26 13/13/12 28/28/25
f 13/13/12 30/30/26 14/14/13
f 19/37/27 29/36/27 27/35/27
f 29/36/27 19/37/27 20/38/27

usemtl border (Instance)
usemap border (Instance)
f 33/41/28 32/40/28 31/39/28
f 32/40/28 33/41/28 34/42/28
f 32/40/28 34/42/28 35/43/28
f 35/43/28 34/42/28 36/44/28
f 35/43/28 36/44/28 37/45/28
f 37/45/28 36/44/28 38/46/28
f 38/46/28 36/44/28 39/47/28
f 38/46/28 39/47/28 40/48/28
f 38/46/28 40/48/28 41/49/28
f 41/49/28 40/48/28 42/50/28
f 41/49/28 42/50/28 43/51/28
f 43/51/28 42/50/28 44/52/28
f 43/51/28 44/52/28 45/53/28
f 33/55/30 5/5/4 34/54/29
f 5/5/4 33/55/30 7/7/6
f 35/57/32 25/25/22 32/56/31
f 25/25/22 35/57/32 1/33/1
f 32/56/31 23/23/20 31/58/33
f 23/23/20 32/56/31 25/25/22
f 42/59/34 14/14/13 30/30/26
f 14/14/13 42/59/34 40/60/35
f 39/61/36 12/12/11 11/11/10
f 12/12/11 39/61/36 36/62/11
f 22/22/19 45/63/18 20/20/18
f 45/63/18 22/22/19 43/64/19
f 34/65/29 12/12/11 36/62/11
f 12/12/11 34/65/29 5/31/4
f 44/66/24 30/30/26 29/29/24
f 30/30/26 44/66/24 42/59/34
f 37/68/37 1/1/1 35/67/32
f 1/1/1 37/68/37 3/3/3
f 40/60/35 11/11/10 14/14/13
f 11/11/10 40/60/35 39/61/36
f 41/69/38 22/22/19 18/18/17
f 22/22/19 41/69/38 43/64/19
f 37/68/37 16/16/15 3/3/3
f 16/16/15 37/68/37 38/70/39
f 38/70/39 18/18/17 16/16/15
f 18/18/17 38/70/39 41/69/38
f 31/58/33 7/7/6 33/55/30
f 7/7/6 31/58/33 23/23/20
f 26/73/40 8/72/40 24/71/40
f 8/72/40 26/73/40 2/74/40
f 8/72/40 2/74/40 6/75/40
f 6/75/40 2/74/40 4/76/40
f 6/75/40 4/76/40 10/77/40
f 10/77/40 4/76/40 15/78/40
f 10/77/40 15/78/40 9/79/40
f 9/79/40 15/78/40 17/80/40
f 9/79/40 17/80/40 13/81/40
f 13/81/40 17/80/40 21/82/40
f 13/81/40 21/82/40 28/83/40
f 28/83/40 21/82/40 19/84/40
f 28/83/40 19/84/40 27/85/40
f 20/38/27 44/86/27 29/36/27
f 44/86/27 20/38/27 45/87/27
