# Made using Asset Forge (www.assetforge.io) version 1.3 

mtllib DreadWorksLevel1Ground.mtl 

v 1.5 0 6.5
v 1.5 0 -13.5
v -11.5 0 6.5
v -11.5 0 -13.5
v -11.5 0.5 -13.5
v -11.5 0.5 6.5
v 1.5 0.5 -13.5
v 1.5 0.5 6.5
vn 0 -0.5 0
vn -13 0 0
vn 0 0 -20
vn 0 0 20
vn 13 0 0
vn 0 0.5 0
vt -1.5 -6.5
vt -1.5 13.5
vt 11.5 -6.5
vt 11.5 13.5
vt -13.5 0
vt -13.5 0.5
vt 6.5 0
vt 6.5 0.5
vt 11.5 0
vt -1.5 0
vt 11.5 0.5
vt -1.5 0.5
vt 1.5 0
vt -11.5 0
vt 1.5 0.5
vt -11.5 0.5
vt 13.5 0.5
vt 13.5 0
vt -6.5 0.5
vt -6.5 0
vt -1.5 -13.5
vt -1.5 6.5
vt 11.5 -13.5
vt 11.5 6.5

usemtl _defaultMat (Instance)
usemap _defaultMat (Instance)
f 3/3/1 2/2/1 1/1/1
f 2/2/1 3/3/1 4/4/1
f 3/7/2 5/6/2 4/5/2
f 5/6/2 3/7/2 6/8/2
f 5/11/3 2/10/3 4/9/3
f 2/10/3 5/11/3 7/12/3
f 8/15/4 3/14/4 1/13/4
f 3/14/4 8/15/4 6/16/4
f 8/19/5 2/18/5 7/17/5
f 2/18/5 8/19/5 1/20/5
f 5/23/6 8/22/6 7/21/6
f 8/22/6 5/23/6 6/24/6
v 1.499998 0 6.499999
v 16.5 0 6.500002
v 1.5 0 -13.5
v 16.5 0 -13.5
v 16.5 0.5 -13.5
v 1.5 0.5 -13.5
v 16.5 0.5 6.500002
v 1.499998 0.5 6.499999
vn 1.907349E-06 0 -20
vn 15 0 1.907349E-06
vn -15 0 -1.907349E-06
vn -1.907349E-06 0 20
vt -1.499998 -6.5
vt -16.5 -6.500002
vt -1.5 13.5
vt -16.5 13.5
vt -16.5 0
vt -16.5 0.5
vt -1.5 0
vt -1.5 0.5
vt -6.500002 0
vt -6.500002 0.5
vt -13.5 0
vt -13.5 0.5
vt 16.5 0.5
vt 16.5 0
vt 1.499998 0.5
vt 1.499998 0
vt -16.5 6.500002
vt -1.499998 6.5
vt -16.5 -13.5
vt -1.5 -13.5

usemtl _defaultMat (Instance) (Instance)
usemap _defaultMat (Instance) (Instance)
f 11/27/1 10/26/1 9/25/1
f 10/26/1 11/27/1 12/28/1
f 11/31/7 13/30/7 12/29/7
f 13/30/7 11/31/7 14/32/7
f 13/17/8 10/33/8 12/18/8
f 10/33/8 13/17/8 15/34/8
f 16/8/9 11/35/9 9/7/9
f 11/35/9 16/8/9 14/36/9
f 16/39/10 10/38/10 15/37/10
f 10/38/10 16/39/10 9/40/10
f 13/43/6 16/42/6 15/41/6
f 16/42/6 13/43/6 14/44/6
v 16.5 0 -25.5
v 16.5 0 -10.5
v 32.5 0 -25.5
v 32.5 0 -10.5
v 32.5 0.5 -10.5
v 32.5 0.5 -25.5
v 16.5 0.5 -10.5
v 16.5 0.5 -25.5
vn 16 0 1.398764E-06
vn -1.311342E-06 0 15
vn 1.311342E-06 0 -15
vn -16 0 -1.398764E-06
vt -16.5 25.5
vt -16.5 10.5
vt -32.5 25.5
vt -32.5 10.5
vt 10.5 0
vt 10.5 0.5
vt 25.5 0
vt 25.5 0.5
vt 32.5 0
vt 32.5 0.5
vt -16.5 0
vt -32.5 0
vt -16.5 0.5
vt -32.5 0.5
vt -10.5 0.5
vt -10.5 0
vt -25.5 0.5
vt -25.5 0
vt -16.5 -10.5
vt -16.5 -25.5
vt -32.5 -10.5
vt -32.5 -25.5

usemtl _defaultMat (Instance) (Instance)
usemap _defaultMat (Instance) (Instance)
f 19/47/1 18/46/1 17/45/1
f 18/46/1 19/47/1 20/48/1
f 19/51/11 21/50/11 20/49/11
f 21/50/11 19/51/11 22/52/11
f 21/54/12 18/38/12 20/53/12
f 18/38/12 21/54/12 23/37/12
f 24/57/13 19/56/13 17/55/13
f 19/56/13 24/57/13 22/58/13
f 24/61/14 18/60/14 23/59/14
f 18/60/14 24/61/14 17/62/14
f 21/65/6 24/64/6 23/63/6
f 24/64/6 21/65/6 22/66/6
v 11.5 0 -34.5
v 11.5 0 -25.5
v 31.5 0 -34.5
v 31.5 0 -25.5
v 31.5 0.5 -25.5
v 31.5 0.5 -34.5
v 11.5 0.5 -25.5
v 11.5 0.5 -34.5
vn 20 0 1.748456E-06
vn -7.86805E-07 0 9
vn 7.86805E-07 0 -9
vn -20 0 -1.748456E-06
vt -11.5 34.5
vt -11.5 25.5
vt -31.5 34.5
vt -31.5 25.5
vt 34.5 0
vt 34.5 0.5
vt 31.5 0
vt 31.5 0.5
vt -31.5 0
vt -31.5 0.5
vt -34.5 0.5
vt -34.5 0
vt -11.5 -25.5
vt -11.5 -34.5
vt -31.5 -25.5
vt -31.5 -34.5

usemtl _defaultMat (Instance) (Instance)
usemap _defaultMat (Instance) (Instance)
f 27/69/1 26/68/1 25/67/1
f 26/68/1 27/69/1 28/70/1
f 27/71/15 29/52/15 28/51/15
f 29/52/15 27/71/15 30/72/15
f 29/74/16 26/9/16 28/73/16
f 26/9/16 29/74/16 31/11/16
f 32/16/17 27/75/17 25/14/17
f 27/75/17 32/16/17 30/76/17
f 32/77/18 26/62/18 31/61/18
f 26/62/18 32/77/18 25/78/18
f 29/81/6 32/80/6 31/79/6
f 32/80/6 29/81/6 30/82/6
v 11.5 0 -40.5
v 31.5 0 -40.5
v 31.5 0.5 -40.5
v 11.5 0.5 -40.5
vn -5.245366E-07 0 6
vn 5.245366E-07 0 -6
vt -11.5 40.5
vt -31.5 40.5
vt 40.5 0
vt 40.5 0.5
vt -40.5 0.5
vt -40.5 0
vt -11.5 -40.5
vt -31.5 -40.5

usemtl _defaultMat (Instance) (Instance)
usemap _defaultMat (Instance) (Instance)
f 34/84/1 25/67/1 33/83/1
f 25/67/1 34/84/1 27/69/1
f 34/85/15 30/72/15 27/71/15
f 30/72/15 34/85/15 35/86/15
f 30/74/19 25/9/19 27/73/19
f 25/9/19 30/74/19 32/11/19
f 36/16/20 34/75/20 33/14/20
f 34/75/20 36/16/20 35/76/20
f 36/87/18 25/78/18 32/77/18
f 25/78/18 36/87/18 33/88/18
f 30/82/6 36/89/6 32/80/6
f 36/89/6 30/82/6 35/90/6
v 8.5 0 -45.5
v 8.5 0 -40.5
v 27.5 0 -45.5
v 27.5 0 -40.5
v 27.5 0.5 -40.5
v 27.5 0.5 -45.5
v 8.5 0.5 -40.5
v 8.5 0.5 -45.5
vn 19 0 1.661033E-06
vn -4.371139E-07 0 5
vn 4.371139E-07 0 -5
vn -19 0 -1.661033E-06
vt -8.5 45.5
vt -8.5 40.5
vt -27.5 45.5
vt -27.5 40.5
vt 45.5 0
vt 45.5 0.5
vt 27.5 0
vt 8.5 0
vt 27.5 0.5
vt 8.5 0.5
vt -8.5 0
vt -27.5 0
vt -8.5 0.5
vt -27.5 0.5
vt -45.5 0.5
vt -45.5 0
vt -8.5 -40.5
vt -8.5 -45.5
vt -27.5 -40.5
vt -27.5 -45.5

usemtl _defaultMat (Instance) (Instance)
usemap _defaultMat (Instance) (Instance)
f 39/93/1 38/92/1 37/91/1
f 38/92/1 39/93/1 40/94/1
f 39/95/21 41/86/21 40/85/21
f 41/86/21 39/95/21 42/96/21
f 41/99/22 38/98/22 40/97/22
f 38/98/22 41/99/22 43/100/22
f 44/103/23 39/102/23 37/101/23
f 39/102/23 44/103/23 42/104/23
f 44/105/24 38/88/24 43/87/24
f 38/88/24 44/105/24 37/106/24
f 41/109/6 44/108/6 43/107/6
f 44/108/6 41/109/6 42/110/6
v 7.5 0 -49.5
v 7.5 0 -45.5
v 27.5 0 -49.5
v 27.5 0.5 -49.5
v 7.5 0.5 -45.5
v 7.5 0.5 -49.5
vn -3.496911E-07 0 4
vn 3.496911E-07 0 -4
vt -7.5 49.5
vt -7.5 45.5
vt -27.5 49.5
vt 49.5 0
vt 49.5 0.5
vt 7.5 0
vt 7.5 0.5
vt -7.5 0
vt -7.5 0.5
vt -49.5 0.5
vt -49.5 0
vt -7.5 -45.5
vt -7.5 -49.5
vt -27.5 -49.5

usemtl _defaultMat (Instance) (Instance)
usemap _defaultMat (Instance) (Instance)
f 47/113/1 46/112/1 45/111/1
f 46/112/1 47/113/1 39/93/1
f 47/114/15 42/96/15 39/95/15
f 42/96/15 47/114/15 48/115/15
f 42/99/25 46/116/25 39/97/25
f 46/116/25 42/99/25 49/117/25
f 50/119/26 47/102/26 45/118/26
f 47/102/26 50/119/26 48/104/26
f 50/120/18 46/106/18 49/105/18
f 46/106/18 50/120/18 45/121/18
f 42/110/6 50/123/6 49/122/6
f 50/123/6 42/110/6 48/124/6
v 19.5 0 -52.5
v 11.5 0 -52.5
v 19.5 0 -49.5
v 11.5 0 -49.5
v 11.5 0.5 -49.5
v 19.5 0.5 -49.5
v 11.5 0.5 -52.5
v 19.5 0.5 -52.5
vn 4.768372E-07 0 3
vn -8.000001 0 9.536743E-07
vn 8.000001 0 -9.536743E-07
vn -4.768372E-07 0 -3
vt -19.5 52.5
vt -11.5 52.5
vt -19.5 49.5
vt -11.5 49.5
vt 19.5 0
vt 19.5 0.5
vt -52.5 0
vt -52.5 0.5
vt 52.5 0
vt 52.5 0.5
vt -11.5 0.5
vt -11.5 0
vt -19.5 0.5
vt -19.5 0
vt -11.5 -52.5
vt -19.5 -52.5
vt -11.5 -49.5
vt -19.5 -49.5

usemtl _defaultMat (Instance) (Instance)
usemap _defaultMat (Instance) (Instance)
f 53/127/1 52/126/1 51/125/1
f 52/126/1 53/127/1 54/128/1
f 53/129/27 55/11/27 54/9/27
f 55/11/27 53/129/27 56/130/27
f 55/120/28 52/131/28 54/121/28
f 52/131/28 55/120/28 57/132/28
f 58/134/29 53/114/29 51/133/29
f 53/114/29 58/134/29 56/115/29
f 58/137/30 52/136/30 57/135/30
f 52/136/30 58/137/30 51/138/30
f 55/141/6 58/140/6 57/139/6
f 58/140/6 55/141/6 56/142/6
v 11.5 0 -64.5
v 2.499999 0 -64.5
v 11.5 0 -49.5
v 2.5 0 -49.5
v 2.5 0.5 -49.5
v 11.5 0.5 -49.5
v 2.499999 0.5 -64.5
v 11.5 0.5 -64.5
vn 1.907349E-06 0 15
vn -9.000001 0 9.536743E-07
vn 9.000001 0 -9.536743E-07
vn -1.907349E-06 0 -15
vt -11.5 64.5
vt -2.499999 64.5
vt -11.5 49.5
vt -2.5 49.5
vt 2.5 0
vt 2.5 0.5
vt 11.5 0
vt 11.5 0.5
vt -64.5 0
vt -64.5 0.5
vt 64.5 0
vt 64.5 0.5
vt -2.499999 0.5
vt -2.499999 0
vt -2.499999 -64.5
vt -11.5 -64.5
vt -2.5 -49.5
vt -11.5 -49.5

usemtl _defaultMat (Instance) (Instance)
usemap _defaultMat (Instance) (Instance)
f 61/145/1 60/144/1 59/143/1
f 60/144/1 61/145/1 62/146/1
f 61/149/31 63/148/31 62/147/31
f 63/148/31 61/149/31 64/150/31
f 63/120/32 60/151/32 62/121/32
f 60/151/32 63/120/32 65/152/32
f 66/154/33 61/114/33 59/153/33
f 61/114/33 66/154/33 64/115/33
f 66/16/34 60/156/34 65/155/34
f 60/156/34 66/16/34 59/14/34
f 63/159/6 66/158/6 65/157/6
f 66/158/6 63/159/6 64/160/6
v 20.5 0 -70.5
v 2.499998 0 -70.5
v 20.5 0 -64.5
v 2.5 0 -64.5
v 2.5 0.5 -64.5
v 20.5 0.5 -64.5
v 2.499998 0.5 -70.5
v 20.5 0.5 -70.5
vn 9.536743E-07 0 6.000001
vn -18 0 1.907349E-06
vn 18 0 -1.907349E-06
vn -9.536743E-07 0 -6.000001
vt -20.5 70.5
vt -2.499999 70.5
vt -20.5 64.5
vt -2.5 64.5
vt 2.5 0
vt 2.5 0.5
vt 20.5 0
vt 20.5 0.5
vt -70.5 0
vt -70.5 0.5
vt 70.5 0
vt 70.5 0.5
vt -20.5 0.5
vt -20.5 0
vt -2.499999 -70.5
vt -20.5 -70.5
vt -2.5 -64.5
vt -20.5 -64.5

usemtl _defaultMat (Instance) (Instance)
usemap _defaultMat (Instance) (Instance)
f 69/163/1 68/162/1 67/161/1
f 68/162/1 69/163/1 70/164/1
f 69/167/35 71/166/35 70/165/35
f 71/166/35 69/167/35 72/168/35
f 71/152/36 68/169/36 70/151/36
f 68/169/36 71/152/36 73/170/36
f 74/172/37 69/153/37 67/171/37
f 69/153/37 74/172/37 72/154/37
f 74/173/38 68/156/38 73/155/38
f 68/156/38 74/173/38 67/174/38
f 71/177/6 74/176/6 73/175/6
f 74/176/6 71/177/6 72/178/6
v 16.5 0 6.5
v 29.5 0 6.500002
v 16.5 0 -10.5
v 29.5 0 -10.5
v 29.5 0.5 -10.5
v 16.5 0.5 -10.5
v 29.5 0.5 6.500002
v 16.5 0.5 6.5
vn 1.907349E-06 0 -17
vn 13 0 1.907349E-06
vn -13 0 -1.907349E-06
vn -1.907349E-06 0 17
vt -16.5 -6.5
vt -29.5 -6.500002
vt -16.5 10.5
vt -29.5 10.5
vt -29.5 0
vt -29.5 0.5
vt 10.5 0
vt 10.5 0.5
vt -10.5 0
vt -10.5 0.5
vt 29.5 0.5
vt 29.5 0
vt 16.5 0.5
vt 16.5 0
vt -29.5 6.500002
vt -16.5 6.5
vt -29.5 -10.5
vt -16.5 -10.5

usemtl _defaultMat (Instance) (Instance)
usemap _defaultMat (Instance) (Instance)
f 77/181/1 76/180/1 75/179/1
f 76/180/1 77/181/1 78/182/1
f 77/55/39 79/184/39 78/183/39
f 79/184/39 77/55/39 80/57/39
f 79/186/40 76/33/40 78/185/40
f 76/33/40 79/186/40 81/34/40
f 82/8/41 77/187/41 75/7/41
f 77/187/41 82/8/41 80/188/41
f 82/191/42 76/190/42 81/189/42
f 76/190/42 82/191/42 75/192/42
f 79/195/6 82/194/6 81/193/6
f 82/194/6 79/195/6 80/196/6
v 9.499999 0 10.3
v 29.5 0 10.3
v 9.499999 0 6.499998
v 29.5 0 6.5
v 29.5 0.5 6.5
v 9.499999 0.5 6.499998
v 29.5 0.5 10.3
v 9.499999 0.5 10.3
vn 4.768372E-07 0 -3.8
vn 20 0 1.907349E-06
vn -20 0 -1.907349E-06
vn -4.768372E-07 0 3.8
vt -9.499999 -10.3
vt -29.5 -10.3
vt -9.499999 -6.499998
vt -29.5 -6.5
vt -9.499999 0
vt -9.499999 0.5
vt -6.5 0
vt -10.3 0
vt -6.5 0.5
vt -10.3 0.5
vt 10.3 0
vt 6.499998 0
vt 10.3 0.5
vt 6.499998 0.5
vt 9.499999 0.5
vt 9.499999 0
vt -29.5 10.3
vt -9.499999 10.3
vt -29.5 6.5
vt -9.499999 6.499998

usemtl _defaultMat (Instance) (Instance)
usemap _defaultMat (Instance) (Instance)
f 85/199/1 84/198/1 83/197/1
f 84/198/1 85/199/1 86/200/1
f 85/201/43 87/184/43 86/183/43
f 87/184/43 85/201/43 88/202/43
f 87/205/44 84/204/44 86/203/44
f 84/204/44 87/205/44 89/206/44
f 90/209/45 85/208/45 83/207/45
f 85/208/45 90/209/45 88/210/45
f 90/211/46 84/190/46 89/189/46
f 84/190/46 90/211/46 83/212/46
f 87/215/6 90/214/6 89/213/6
f 90/214/6 87/215/6 88/216/6
v -10.5 0 10.3
v 9.500001 0 10.3
v -10.5 0 6.499998
v 9.500001 0 6.5
v 9.500001 0.5 6.5
v -10.5 0.5 6.499998
v 9.500001 0.5 10.3
v -10.5 0.5 10.3
vt 10.5 -10.3
vt -9.500001 -10.3
vt 10.5 -6.499998
vt -9.500001 -6.5
vt -9.500001 0
vt -9.500001 0.5
vt 10.5 0
vt 10.5 0.5
vt 9.500001 0.5
vt 9.500001 0
vt -9.500001 10.3
vt 10.5 10.3
vt -9.500001 6.5
vt 10.5 6.499998

usemtl _defaultMat (Instance) (Instance)
usemap _defaultMat (Instance) (Instance)
f 93/219/1 92/218/1 91/217/1
f 92/218/1 93/219/1 94/220/1
f 93/223/43 95/222/43 94/221/43
f 95/222/43 93/223/43 96/224/43
f 95/205/44 92/204/44 94/203/44
f 92/204/44 95/205/44 97/206/44
f 98/209/45 93/208/45 91/207/45
f 93/208/45 98/209/45 96/210/45
f 98/59/46 92/226/46 97/225/46
f 92/226/46 98/59/46 91/60/46
f 95/229/6 98/228/6 97/227/6
f 98/228/6 95/229/6 96/230/6
v -11.5 0 10.3
v -10.5 0 10.3
v -11.5 0 6.499999
v -10.5 0 6.5
v -10.5 0.5 6.5
v -11.5 0.5 6.499999
v -10.5 0.5 10.3
v -11.5 0.5 10.3
vn 1 0 1.192093E-07
vn -1 0 -1.192093E-07
vt 11.5 -10.3
vt 10.5 -10.3
vt 11.5 -6.5
vt 10.5 -6.5
vt -6.5 0
vt -10.3 0
vt -6.5 0.5
vt -10.3 0.5
vt 10.3 0
vt 6.5 0
vt 10.3 0.5
vt 6.5 0.5
vt -10.5 0.5
vt -10.5 0
vt 10.5 10.3
vt 11.5 10.3
vt 10.5 6.5
vt 11.5 6.5

usemtl _defaultMat (Instance) (Instance)
usemap _defaultMat (Instance) (Instance)
f 101/233/1 100/232/1 99/231/1
f 100/232/1 101/233/1 102/234/1
f 101/9/43 103/186/43 102/185/43
f 103/186/43 101/9/43 104/11/43
f 103/237/47 100/236/47 102/235/47
f 100/236/47 103/237/47 105/238/47
f 106/241/48 101/240/48 99/239/48
f 101/240/48 106/241/48 104/242/48
f 106/16/46 100/244/46 105/243/46
f 100/244/46 106/16/46 99/14/46
f 103/247/6 106/246/6 105/245/6
f 106/246/6 103/247/6 104/248/6
v 1.5 0 -24.5
v -11.5 0 -24.5
v -11.5 0.5 -24.5
v 1.5 0.5 -24.5
vn 0 0 -11
vn 0 0 11
vt -1.5 24.5
vt 11.5 24.5
vt -24.5 0
vt -24.5 0.5
vt 24.5 0.5
vt 24.5 0
vt -1.5 -24.5
vt 11.5 -24.5

usemtl _defaultMat (Instance) (Instance)
usemap _defaultMat (Instance) (Instance)
f 4/4/1 107/249/1 2/2/1
f 107/249/1 4/4/1 108/250/1
f 4/5/2 109/252/2 108/251/2
f 109/252/2 4/5/2 5/6/2
f 109/11/49 107/10/49 108/9/49
f 107/10/49 109/11/49 110/12/49
f 7/15/50 4/14/50 2/13/50
f 4/14/50 7/15/50 5/16/50
f 7/17/5 107/254/5 110/253/5
f 107/254/5 7/17/5 2/18/5
f 109/256/6 7/21/6 110/255/6
f 7/21/6 109/256/6 5/23/6
v 16.5 0 -13.5
v 1.5 0 -25.5
v 1.5 0.5 -25.5
v 16.5 0.5 -13.5
vn -15 0 0
vn 0 0 -12
vn 0 0 12
vn 15 0 0
vt -16.5 13.5
vt -1.5 25.5
vt -16.5 -13.5
vt -1.5 -25.5

usemtl _defaultMat (Instance) (Instance)
usemap _defaultMat (Instance) (Instance)
f 2/2/1 17/45/1 111/257/1
f 17/45/1 2/2/1 112/258/1
f 2/5/51 113/61/51 112/62/51
f 113/61/51 2/5/51 7/6/51
f 113/12/52 17/55/52 112/10/52
f 17/55/52 113/12/52 24/57/52
f 114/37/53 2/13/53 111/38/53
f 2/13/53 114/37/53 7/15/53
f 114/17/54 17/51/54 24/52/54
f 17/51/54 114/17/54 111/18/54
f 113/260/6 114/259/6 24/64/6
f 114/259/6 113/260/6 7/21/6
v 0.5000005 0 -35.5
v 0.4999995 0 -25.5
v 11.5 0 -35.5
v 11.5 0.5 -35.5
v 0.4999995 0.5 -25.5
v 0.5000005 0.5 -35.5
vn 11 0 9.616506E-07
vn -8.742278E-07 0 10
vn 8.742278E-07 0 -10
vn -11 0 -9.616506E-07
vt -0.5000004 35.5
vt -0.4999996 25.5
vt -11.5 35.5
vt 35.5 0
vt 35.5 0.5
vt 0.4999996 0
vt 0.4999996 0.5
vt -0.5000004 0
vt -0.5000004 0.5
vt -35.5 0.5
vt -35.5 0
vt -0.4999996 -25.5
vt -0.5000004 -35.5
vt -11.5 -35.5

usemtl _defaultMat (Instance) (Instance)
usemap _defaultMat (Instance) (Instance)
f 117/263/1 116/262/1 115/261/1
f 116/262/1 117/263/1 26/68/1
f 117/264/55 31/52/55 26/51/55
f 31/52/55 117/264/55 118/265/55
f 31/11/56 116/266/56 26/9/56
f 116/266/56 31/11/56 119/267/56
f 120/269/57 117/14/57 115/268/57
f 117/14/57 120/269/57 118/16/57
f 120/270/58 116/62/58 119/61/58
f 116/62/58 120/270/58 115/271/58
f 31/79/6 120/273/6 119/272/6
f 120/273/6 31/79/6 118/274/6
v 0.5000001 0 -25.55
v 0.4999999 0 -24.45
v 1.5 0 -25.55
v 1.5 0 -24.45
v 1.5 0.5 -24.45
v 1.5 0.5 -25.55
v 0.4999999 0.5 -24.45
v 0.5000001 0.5 -25.55
vn 1 0 8.742278E-08
vn -9.616505E-08 0 1.1
vn 9.616505E-08 0 -1.1
vn -1 0 -8.742278E-08
vt -0.5000001 25.55
vt -0.4999999 24.45
vt -1.5 25.55
vt -1.5 24.45
vt 24.45 0
vt 24.45 0.5
vt 25.55 0
vt 25.55 0.5
vt 0.4999999 0
vt 0.4999999 0.5
vt -0.5000001 0
vt -0.5000001 0.5
vt -24.45 0.5
vt -24.45 0
vt -25.55 0.5
vt -25.55 0
vt -0.4999999 -24.45
vt -0.5000001 -25.55
vt -1.5 -24.45
vt -1.5 -25.55

usemtl _defaultMat (Instance) (Instance)
usemap _defaultMat (Instance) (Instance)
f 123/277/1 122/276/1 121/275/1
f 122/276/1 123/277/1 124/278/1
f 123/281/59 125/280/59 124/279/59
f 125/280/59 123/281/59 126/282/59
f 125/15/60 122/283/60 124/13/60
f 122/283/60 125/15/60 127/284/60
f 128/286/61 123/10/61 121/285/61
f 123/10/61 128/286/61 126/12/61
f 128/289/62 122/288/62 127/287/62
f 122/288/62 128/289/62 121/290/62
f 125/293/6 128/292/6 127/291/6
f 128/292/6 125/293/6 126/294/6
v 20.5 0 -64.5
v 11.5 0 -64.5
v 20.5 0 -52.5
v 11.5 0 -52.5
v 11.5 0.5 -52.5
v 20.5 0.5 -52.5
v 11.5 0.5 -64.5
v 20.5 0.5 -64.5
vn 1.907349E-06 0 12
vn -1.907349E-06 0 -12
vt -20.5 64.5
vt -11.5 64.5
vt -20.5 52.5
vt -11.5 52.5
vt -11.5 -64.5
vt -20.5 -64.5
vt -11.5 -52.5
vt -20.5 -52.5

usemtl _defaultMat (Instance) (Instance)
usemap _defaultMat (Instance) (Instance)
f 131/297/1 130/296/1 129/295/1
f 130/296/1 131/297/1 132/298/1
f 131/167/63 133/11/63 132/9/63
f 133/11/63 131/167/63 134/168/63
f 133/132/32 130/151/32 132/131/32
f 130/151/32 133/132/32 135/152/32
f 136/154/33 131/133/33 129/153/33
f 131/133/33 136/154/33 134/134/33
f 136/173/64 130/136/64 135/135/64
f 130/136/64 136/173/64 129/174/64
f 133/301/6 136/300/6 135/299/6
f 136/300/6 133/301/6 134/302/6
v 2.5 0 -49.5
v 2.5 0 -45.5
v 2.5 0.5 -45.5
v 2.5 0.5 -49.5
vn 5 0 4.371139E-07
vn -5 0 -4.371139E-07
vt -2.5 49.5
vt -2.5 45.5
vt 2.5 0
vt 2.5 0.5
vt -2.5 0
vt -2.5 0.5
vt -2.5 -45.5
vt -2.5 -49.5

usemtl _defaultMat (Instance) (Instance)
usemap _defaultMat (Instance) (Instance)
f 45/111/1 138/304/1 137/303/1
f 138/304/1 45/111/1 46/112/1
f 45/114/65 49/96/65 46/95/65
f 49/96/65 45/114/65 50/115/65
f 49/117/25 138/305/25 46/116/25
f 138/305/25 49/117/25 139/306/25
f 140/308/26 45/118/26 137/307/26
f 45/118/26 140/308/26 50/119/26
f 140/120/66 138/106/66 139/105/66
f 138/106/66 140/120/66 137/121/66
f 49/122/6 140/310/6 139/309/6
f 140/310/6 49/122/6 50/123/6
v 27.5 0 -54.95
v 20.5 0 -54.95
v 27.5 0 -49.45
v 20.5 0 -49.45
v 20.5 0.5 -49.45
v 27.5 0.5 -49.45
v 20.5 0.5 -54.95
v 27.5 0.5 -54.95
vn 4.768372E-07 0 5.5
vn -7.000001 0 9.536743E-07
vn 7.000001 0 -9.536743E-07
vn -4.768372E-07 0 -5.5
vt -27.5 54.95
vt -20.5 54.95
vt -27.5 49.45
vt -20.5 49.45
vt 20.5 0
vt 20.5 0.5
vt -49.45 0
vt -54.95 0
vt -49.45 0.5
vt -54.95 0.5
vt 54.95 0
vt 49.45 0
vt 54.95 0.5
vt 49.45 0.5
vt -20.5 -54.95
vt -27.5 -54.95
vt -20.5 -49.45
vt -27.5 -49.45

usemtl _defaultMat (Instance) (Instance)
usemap _defaultMat (Instance) (Instance)
f 143/313/1 142/312/1 141/311/1
f 142/312/1 143/313/1 144/314/1
f 143/97/67 145/316/67 144/315/67
f 145/316/67 143/97/67 146/99/67
f 145/319/68 142/318/68 144/317/68
f 142/318/68 145/319/68 147/320/68
f 148/323/69 143/322/69 141/321/69
f 143/322/69 148/323/69 146/324/69
f 148/104/70 142/174/70 147/173/70
f 142/174/70 148/104/70 141/102/70
f 145/327/6 148/326/6 147/325/6
f 148/326/6 145/327/6 146/328/6
v 20.5 0 -52.6
v 19.5 0 -52.6
v 20.5 0 -49.5
v 20.5 0.5 -49.5
v 19.5 0.5 -52.6
v 20.5 0.5 -52.6
vn 4.768372E-07 0 3.1
vn -1 0 1.192093E-07
vn 1 0 -1.192093E-07
vn -4.768372E-07 0 -3.1
vt -20.5 52.6
vt -19.5 52.6
vt -20.5 49.5
vt -52.6 0
vt -52.6 0.5
vt 52.6 0
vt 52.6 0.5
vt -19.5 -52.6
vt -20.5 -52.6
vt -20.5 -49.5

usemtl _defaultMat (Instance) (Instance)
usemap _defaultMat (Instance) (Instance)
f 151/331/1 150/330/1 149/329/1
f 150/330/1 151/331/1 53/127/1
f 151/315/71 56/130/71 53/129/71
f 56/130/71 151/315/71 152/316/71
f 56/120/72 150/332/72 53/121/72
f 150/332/72 56/120/72 153/333/72
f 154/335/73 151/114/73 149/334/73
f 151/114/73 154/335/73 152/115/73
f 154/173/74 150/138/74 153/137/74
f 150/138/74 154/173/74 149/174/74
f 56/142/6 154/337/6 153/336/6
f 154/337/6 56/142/6 152/338/6
v 27.5 0 -60.35
v 20.5 0 -60.35
v 27.5 0 -54.85
v 20.5 0 -54.85
v 20.5 0.5 -54.85
v 27.5 0.5 -54.85
v 20.5 0.5 -60.35
v 27.5 0.5 -60.35
vt -27.5 60.35
vt -20.5 60.35
vt -27.5 54.85
vt -20.5 54.85
vt -54.85 0
vt -60.35 0
vt -54.85 0.5
vt -60.35 0.5
vt 60.35 0
vt 54.85 0
vt 60.35 0.5
vt 54.85 0.5
vt -20.5 -60.35
vt -27.5 -60.35
vt -20.5 -54.85
vt -27.5 -54.85

usemtl _defaultMat (Instance) (Instance)
usemap _defaultMat (Instance) (Instance)
f 157/341/1 156/340/1 155/339/1
f 156/340/1 157/341/1 158/342/1
f 157/97/67 159/316/67 158/315/67
f 159/316/67 157/97/67 160/99/67
f 159/345/68 156/344/68 158/343/68
f 156/344/68 159/345/68 161/346/68
f 162/349/69 157/348/69 155/347/69
f 157/348/69 162/349/69 160/350/69
f 162/104/70 156/174/70 161/173/70
f 156/174/70 162/104/70 155/102/70
f 159/353/6 162/352/6 161/351/6
f 162/352/6 159/353/6 160/354/6
v 5.3 0 -40.5
v 5.299999 0 -35.5
v 11.5 0 -35.5
v 11.5 0.5 -35.5
v 5.299999 0.5 -35.5
v 5.3 0.5 -40.5
vn 6.2 0 5.420212E-07
vn -6.2 0 -5.420212E-07
vt -5.3 40.5
vt -5.3 35.5
vt -11.5 35.5
vt 11.5 0
vt 5.3 0
vt 11.5 0.5
vt 5.3 0.5
vt -5.3 0
vt -5.3 0.5
vt -5.3 -35.5
vt -5.3 -40.5
vt -11.5 -35.5

usemtl _defaultMat (Instance) (Instance)
usemap _defaultMat (Instance) (Instance)
f 33/83/1 164/356/1 163/355/1
f 164/356/1 33/83/1 165/357/1
f 33/85/75 166/265/75 165/264/75
f 166/265/75 33/85/75 36/86/75
f 166/360/22 164/359/22 165/358/22
f 164/359/22 166/360/22 167/361/22
f 168/363/23 33/14/23 163/362/23
f 33/14/23 168/363/23 36/16/23
f 168/87/76 164/271/76 167/270/76
f 164/271/76 168/87/76 163/88/76
f 166/366/6 168/365/6 167/364/6
f 168/365/6 166/366/6 36/89/6
