# Made using Asset Forge (www.assetforge.io) version 1.3 

mtllib Floor.mtl 

g block_default_22

v 2.5 0 1.5
v 2.5 0 -5.5
v -4.5 0 1.5
v -4.5 0 -5.5
v -4.5 1 -5.5
v -4.5 1 1.5
v 2.5 1 -5.5
v 2.5 1 1.5
vn 0 -1 0
vn -7 0 0
vn 0 0 -7
vn 0 0 7
vn 7 0 0
vn 0 1 0
vt -2.5 -1.5
vt -2.5 5.5
vt 4.5 -1.5
vt 4.5 5.5
vt -5.5 0
vt -5.5 1
vt 1.5 0
vt 1.5 1
vt 4.5 0
vt -2.5 0
vt 4.5 1
vt -2.5 1
vt 2.5 0
vt -4.5 0
vt 2.5 1
vt -4.5 1
vt 5.5 1
vt 5.5 0
vt -1.5 1
vt -1.5 0
vt -2.5 -5.5
vt -2.5 1.5
vt 4.5 -5.5
vt 4.5 1.5

usemtl customMaterial1 (Instance)
usemap customMaterial1 (Instance)
f 3/3/1 2/2/1 1/1/1
f 2/2/1 3/3/1 4/4/1
f 3/7/2 5/6/2 4/5/2
f 5/6/2 3/7/2 6/8/2
f 5/11/3 2/10/3 4/9/3
f 2/10/3 5/11/3 7/12/3
f 8/15/4 3/14/4 1/13/4
f 3/14/4 8/15/4 6/16/4
f 8/19/5 2/18/5 7/17/5
f 2/18/5 8/19/5 1/20/5
f 5/23/6 8/22/6 7/21/6
f 8/22/6 5/23/6 6/24/6
