# Made using Asset Forge (www.assetforge.io) version 1.3 

mtllib Lantern.mtl 

v 0.09482978 0.292 0.05475
v 0.05041498 0.292 -0.0291071
v 0.09482978 0.292 -0.05475
v 0 0.292 -0.1095
v -1.804779E-16 0.292 -0.0582142
v -0.09482978 0.292 -0.05475
v -0.05041498 0.292 -0.0291071
v -0.05041498 0.292 0.0291071
v 0.05041498 0.292 0.0291071
v 0 0.292 0.1095
v 1.804779E-16 0.292 0.0582142
v -0.09482978 0.292 0.05475
v 0.09482978 0.2555 0.05475
v 0 0.2555 0.1095
v 0.09482978 0.0365 -0.05475
v 0.09482978 0 -0.05475
v 0.09482978 0.0365 0.05475
v 0.09482978 0 0.05475
v 0 0 0.1095
v 0 0 -0.1095
v -0.09482978 0 0.05475
v -0.09482978 0 -0.05475
v 0 0.2555 -0.1095
v 0.09482978 0.2555 -0.05475
v -0.05041498 0.3212 -0.0291071
v -1.804779E-16 0.3212 -0.0582142
v 0 0.0365 0.1095
v -0.09482978 0.0365 0.05475
v -0.05041498 0.3212 0.0291071
v 0.05041498 0.3212 0.0291071
v 1.804779E-16 0.3212 0.0582142
v 0 0.0365 -0.1095
v -0.09482978 0.0365 -0.05475
v 0.05041498 0.3212 -0.0291071
v -0.09482978 0.2555 -0.05475
v -0.09482978 0.2555 0.05475
v 0.07205389 0.0365 -0.04160034
v 0 0.0365 -0.08320068
v -0.07205389 0.0365 -0.04160034
v -0.07205389 0.0365 0.04160034
v 0.07205389 0.0365 0.04160034
v 1.804779E-16 0.0365 0.08320068
v 0.07205389 0.2555 0.04160034
v 1.804779E-16 0.2555 0.08320068
v -0.07205389 0.2555 0.04160034
v -0.07205389 0.2555 -0.04160034
v 0.07205389 0.2555 -0.04160034
v 0 0.2555 -0.08320068
v 2.707168E-16 0.146 -0.1040008
v 0.09006738 0.146 -0.05200042
v 0.09006738 0.146 0.05200042
v -0.09006738 0.146 -0.05200042
v -0.09006738 0.146 0.05200042
v 6.316725E-16 0.146 0.1040008
vn 0 1 0
vn 0.5000001 0 0.8660254
vn 1 0 0
vn 0 -1 0
vn 0.5000001 0 -0.8660254
vn -0.5000001 0 -0.8660254
vn -0.5000001 0 0.8660254
vn -1 0 0
vn 0.49925 -0.05475329 -0.8647263
vn 0.49925 0.05475327 -0.8647263
vn 0.4933687 0.1623248 -0.8545396
vn 0.9867374 -0.1623249 0
vn 0.9867374 -0.1623248 0
vn -0.9867374 -0.1623249 0
vn -0.9867374 -0.1623248 0
vn 0.4933687 -0.1623248 -0.8545396
vn 0.4933687 -0.1623248 -0.8545396
vn -0.4933687 -0.1623248 -0.8545396
vn -0.49925 -0.05475327 -0.8647263
vn -0.49925 0.05475329 -0.8647263
vn 0.4933687 -0.1623248 0.8545396
vn 0.49925 -0.05475327 0.8647263
vn 0.49925 0.05475329 0.8647263
vn -0.4933687 -0.1623248 0.8545396
vn -0.4933687 -0.1623248 0.8545396
vn -0.49925 -0.05475329 0.8647263
vn -0.49925 0.05475327 0.8647263
vn 0.4933687 0.1623248 0.8545396
vn 0.4933687 0.1623248 0.8545396
vn -0.4933687 0.1623248 0.8545396
vn -0.9867374 0.1623249 0
vn -0.9867374 0.1623248 0
vn -0.4933687 0.1623248 -0.8545396
vn -0.4933687 0.1623248 -0.8545396
vn 0.9867374 0.1623249 0
vn 0.9867374 0.1623248 0
vt -0.09482978 0.05475
vt -0.05041498 -0.0291071
vt -0.09482978 -0.05475
vt 0 -0.1095
vt 1.804779E-16 -0.0582142
vt 0.09482978 -0.05475
vt 0.05041498 -0.0291071
vt 0.05041498 0.0291071
vt -0.05041498 0.0291071
vt 0 0.1095
vt -1.804779E-16 0.0582142
vt 0.09482978 0.05475
vt 0.09482978 0.2555
vt 0 0.2555
vt 0.09482978 0.292
vt 0 0.292
vt 0.05475 0.0365
vt 0.05475 0
vt -0.05475 0.0365
vt -0.05475 0
vt -0.09482978 0.2555
vt -0.09482978 0.292
vt 0.05041498 0.292
vt 1.804779E-16 0.292
vt 0.05041498 0.3212
vt 1.804779E-16 0.3212
vt 0 0
vt -0.09482978 0
vt 0 0.0365
vt -0.09482978 0.0365
vt -0.0291071 0.292
vt -0.0291071 0.3212
vt 0.0291071 0.292
vt 0.0291071 0.3212
vt 0.09482978 0
vt 0.09482978 0.0365
vt -0.05475 0.2555
vt -0.05475 0.292
vt 0.05475 0.2555
vt 0.05475 0.292
vt -0.05041498 0.292
vt -0.05041498 0.3212
vt -0.07205389 -0.04160034
vt 0 -0.08320068
vt 0.07205389 -0.04160034
vt 0.07205389 0.04160034
vt -0.07205389 0.04160034
vt -1.804779E-16 0.08320068
vt -1.804779E-16 -0.08320068
vt 0 0.08320068
vt -2.707168E-16 0.146
vt -0.09006738 0.146
vt -0.07205389 0.2555
vt 0.05200042 0.146
vt 0.04160034 0.0365
vt -0.05200042 0.146
vt -0.04160034 0.0365
vt -0.07205389 0.0365
vt 0.07205389 0.0365
vt 0.09006738 0.146
vt 1.804779E-16 0.0365
vt 6.316725E-16 0.146
vt 0.07205389 0.2555
vt 1.804779E-16 0.2555
vt -0.04160034 0.2555
vt 0.04160034 0.2555

usemtl darkStone (Instance)
usemap darkStone (Instance)
f 3/3/1 2/2/1 1/1/1
f 2/2/1 3/3/1 4/4/1
f 2/2/1 4/4/1 5/5/1
f 5/5/1 4/4/1 6/6/1
f 5/5/1 6/6/1 7/7/1
f 7/7/1 6/6/1 8/8/1
f 9/9/1 1/1/1 2/2/1
f 1/1/1 9/9/1 10/10/1
f 10/10/1 9/9/1 11/11/1
f 10/10/1 11/11/1 8/8/1
f 10/10/1 8/8/1 12/12/1
f 12/12/1 8/8/1 6/6/1
f 1/15/2 14/14/2 13/13/2
f 14/14/2 1/15/2 10/16/2
f 17/19/3 16/18/3 15/17/3
f 16/18/3 17/19/3 18/20/3
f 19/4/4 16/1/4 18/3/4
f 16/1/4 19/4/4 20/10/4
f 20/10/4 19/4/4 21/6/4
f 20/10/4 21/6/4 22/12/4
f 4/16/5 24/21/5 23/14/5
f 24/21/5 4/16/5 3/22/5
f 25/25/6 5/24/6 7/23/6
f 5/24/6 25/25/6 26/26/6
f 27/29/7 21/28/7 19/27/7
f 21/28/7 27/29/7 28/30/7
f 8/33/8 25/32/8 7/31/8
f 25/32/8 8/33/8 29/34/8
f 17/36/2 19/27/2 18/35/2
f 19/27/2 17/36/2 27/29/2
f 30/25/2 11/24/2 9/23/2
f 11/24/2 30/25/2 31/26/2
f 32/29/5 16/28/5 20/27/5
f 16/28/5 32/29/5 15/30/5
f 33/36/6 20/27/6 22/35/6
f 20/27/6 33/36/6 32/29/6
f 30/32/3 2/33/3 34/34/3
f 2/33/3 30/32/3 9/31/3
f 36/39/8 6/38/8 35/37/8
f 6/38/8 36/39/8 12/40/8
f 26/26/5 2/41/5 5/24/5
f 2/41/5 26/26/5 34/42/5
f 10/16/7 36/21/7 14/14/7
f 36/21/7 10/16/7 12/22/7
f 6/15/6 23/14/6 35/13/6
f 23/14/6 6/15/6 4/16/6
f 26/5/1 30/9/1 34/2/1
f 30/9/1 26/5/1 31/11/1
f 31/11/1 26/5/1 29/8/1
f 29/8/1 26/5/1 25/7/1
f 1/38/3 24/39/3 3/40/3
f 24/39/3 1/38/3 13/37/3
f 31/26/7 8/41/7 11/24/7
f 8/41/7 31/26/7 29/42/7
f 21/18/8 33/19/8 22/20/8
f 33/19/8 21/18/8 28/17/8
f 15/3/1 37/43/1 17/1/1
f 37/43/1 15/3/1 32/4/1
f 37/43/1 32/4/1 38/44/1
f 38/44/1 32/4/1 33/6/1
f 38/44/1 33/6/1 39/45/1
f 39/45/1 33/6/1 40/46/1
f 41/47/1 17/1/1 37/43/1
f 17/1/1 41/47/1 27/10/1
f 27/10/1 41/47/1 42/48/1
f 27/10/1 42/48/1 40/46/1
f 27/10/1 40/46/1 28/12/1
f 28/12/1 40/46/1 33/6/1
f 13/3/4 43/43/4 24/1/4
f 43/43/4 13/3/4 14/4/4
f 43/43/4 14/4/4 44/49/4
f 44/49/4 14/4/4 45/45/4
f 45/45/4 14/4/4 36/6/4
f 45/45/4 36/6/4 46/46/4
f 47/47/4 24/1/4 43/43/4
f 24/1/4 47/47/4 23/10/4
f 23/10/4 47/47/4 48/50/4
f 23/10/4 48/50/4 46/46/4
f 23/10/4 46/46/4 35/12/4
f 35/12/4 46/46/4 36/6/4

usemtl roof (Instance)
usemap roof (Instance)
f 48/14/11 50/52/10 49/51/9
f 50/52/10 48/14/11 47/53/11
f 51/56/3 37/55/12 50/54/3
f 37/55/12 51/56/3 41/57/13
f 39/57/14 53/54/8 52/56/8
f 53/54/8 39/57/14 40/55/15
f 49/51/9 37/58/17 38/29/16
f 37/58/17 49/51/9 50/52/10
f 52/60/19 38/29/18 39/59/18
f 38/29/18 52/60/19 49/51/20
f 51/60/22 42/61/21 41/59/21
f 42/61/21 51/60/22 54/62/23
f 54/62/26 40/58/25 42/61/24
f 40/58/25 54/62/26 53/52/27
f 43/63/28 54/62/23 51/60/22
f 54/62/23 43/63/28 44/64/29
f 44/64/30 53/52/27 54/62/26
f 53/52/27 44/64/30 45/53/30
f 53/54/8 46/65/31 52/56/8
f 46/65/31 53/54/8 45/66/32
f 46/63/33 49/51/20 52/60/19
f 49/51/20 46/63/33 48/14/34
f 47/66/35 51/56/3 50/54/3
f 51/56/3 47/66/35 43/65/36
