# Made using Asset Forge (www.assetforge.io) version 1.3 

mtllib Machete.model.mtl 

g hilt_smooth_0

v 0.1242834 0.36 -0.05
v -2.98E-08 0.36 0.01547773
v -2.98E-08 0.36 -0.1154777
v -0.1242834 0.36 -0.05
v -2.98E-08 0.1096364 -0.1002869
v -0.09544969 0.1096364 -0.05
v 0.09544963 0.1096364 -0.05
v -2.98E-08 0.1096364 0.0002868958
v 0.08202701 -2.619185E-15 -0.05
v -2.98E-08 -2.771463E-14 -0.0932153
v -2.98E-08 2.280112E-14 -0.0067847
v -0.08202707 -2.619185E-15 -0.05
vn 0 0.9 0
vn -0.43149 -0.04194359 -0.9910044
vn -0.431527 -0.04025528 -0.9910896
vn -0.4315086 -0.04109946 -0.9910474
vn 0.43149 -0.04194359 0.9910044
vn 0.4315086 -0.04109945 0.9910474
vn 0.431527 -0.04025528 0.9910896
vn -0.43149 -0.04194359 0.9910044
vn -0.431527 -0.04025528 0.9910896
vn -0.4315086 -0.04109945 0.9910474
vn 0.43149 -0.04194359 -0.9910044
vn 0.4315086 -0.04109946 -0.9910474
vn 0.431527 -0.04025528 -0.9910896
vn 0 -0.9 0
vn -0.431471 -0.04278768 -0.9909607
vn -0.4314709 -0.04278769 -0.9909607
vn 0.431471 -0.04278768 -0.9909607
vn 0.4314709 -0.04278769 -0.9909607
vn 0.431471 -0.04278771 0.9909607
vn 0.4314709 -0.04278769 0.9909607
vn -0.431471 -0.04278771 0.9909607
vn -0.4314709 -0.04278769 0.9909607
vt -0.1242834 -0.05
vt 2.98E-08 0.01547773
vt 2.98E-08 -0.1154777
vt 0.1242834 -0.05
vt 2.98E-08 0.1096364
vt 2.98E-08 0.36
vt 0.09544969 0.1096364
vt 0.1242834 0.36
vt 0.09544963 0.1096364
vt -2.98E-08 0.1096364
vt 0.1242834 0.36
vt -2.98E-08 0.36
vt -0.09544969 0.1096364
vt -0.1242834 0.36
vt -0.09544963 0.1096364
vt -0.1242834 0.36
vt -0.09544963 0.05
vt 2.98E-08 0.1002869
vt 2.98E-08 -0.0002868943
vt 0.09544969 0.05
vt -0.08202701 0.05
vt 2.98E-08 0.0932153
vt 2.98E-08 0.0067847
vt 0.08202707 0.05
vt 2.98E-08 -2.771463E-14
vt 0.08202707 -2.619185E-15
vt -0.08202701 -2.619185E-15
vt 0.08202701 -2.619185E-15
vt -2.98E-08 2.280112E-14
vt -0.08202707 -2.619185E-15

usemtl customMaterial1
usemap customMaterial1
f 3/3/1 2/2/1 1/1/1
f 2/2/1 3/3/1 4/4/1
f 6/7/4 3/6/3 5/5/2
f 3/6/3 6/7/4 4/8/3
f 1/11/7 8/10/6 7/9/5
f 8/10/6 1/11/7 2/12/7
f 8/10/10 4/14/9 6/13/8
f 4/14/9 8/10/10 2/12/9
f 3/6/13 7/15/12 5/5/11
f 7/15/12 3/6/13 1/16/13

usemtl customMaterial1
usemap customMaterial1
f 8/19/14 5/18/14 7/17/14
f 5/18/14 8/19/14 6/20/14
f 11/23/14 10/22/14 9/21/14
f 10/22/14 11/23/14 12/24/14
f 12/26/16 5/5/2 10/25/15
f 5/5/2 12/26/16 6/7/4
f 5/5/11 9/27/18 10/25/17
f 9/27/18 5/5/11 7/15/12
f 7/9/5 11/29/20 9/28/19
f 11/29/20 7/9/5 8/10/6
f 11/29/22 6/13/8 12/30/21
f 6/13/8 11/29/22 8/10/10
g blade_scimitar_1

v -0.08403122 0.9461375 -0.06428
v -0.095 1 -0.06428
v -0.08403122 0.9461375 -0.03572
v -0.095 1 -0.03572
v -0.060004 0.7277081 -0.06428
v -0.06301457 0.7826141 -0.06428
v -0.060004 0.7277081 -0.03572
v -0.06301457 0.7826141 -0.03572
v -0.06000401 0.6177465 -0.06428
v -0.05900003 0.6727273 -0.06428
v -0.06000401 0.6177465 -0.03572
v -0.05900003 0.6727273 -0.03572
v -0.07503639 0.4535514 -0.06428
v -0.06802765 0.5080839 -0.06428
v -0.07503639 0.4535514 -0.03572
v -0.06802765 0.5080839 -0.03572
v -0.06301458 0.5628405 -0.06428
v -0.06301458 0.5628405 -0.03572
v -0.08403127 0.399317 -0.06428
v -0.08403127 0.399317 -0.03572
v -0.06802762 0.8373706 -0.06428
v -0.07503635 0.8919032 -0.06428
v -0.06802762 0.8373706 -0.03572
v -0.07503635 0.8919032 -0.03572
v -0.005000003 1 -0.06428
v 0.03526619 0.929953 -0.06361771
v 0.09176786 0.7786155 -0.06216143
v 0.05370394 0.3028169 -0.05740345
v -0.06140601 0.2881645 -0.06217936
v 0.01762358 0.2304876 -0.05665494
v -0.0549459 0.2668664 -0.06139844
v -0.05103341 0.2449521 -0.06059491
v 0.09176791 0.7786159 -0.03784344
v 0.107317 0.6991637 -0.03862067
v 0.1141118 0.618467 -0.03941717
v 0.1120698 0.5375061 -0.04022328
v -0.02612155 0.1626072 -0.05594425
v -0.05494591 0.1785882 -0.05816157
v -0.06140602 0.1572902 -0.05738064
v -0.07032352 0.1369058 -0.04336679
v -0.06140602 0.1572902 -0.04261936
v -0.07032352 0.1369058 -0.05663321
v -0.09500007 0.1 -0.05528
v -0.0815739 0.1177198 -0.05592972
v -0.09500007 0.1 -0.04472
v -0.0815739 0.1177198 -0.04407028
v -0.0703235 0.3085488 -0.06292679
v 0.08168121 0.3787163 -0.05818067
v -0.09500006 0.3454546 -0.06428
v 0.1120697 0.5375055 -0.05978328
v -0.04972314 0.2227274 -0.05978
v -0.05103341 0.2005026 -0.05896509
v 0.06765331 0.8558585 -0.03709494
v 0.06765328 0.8558582 -0.06290864
v 0.1141118 0.6184664 -0.0605892
v 0.1012156 0.4572639 -0.05897717
v 0.107317 0.6991631 -0.06138514
v -0.08157389 0.3277348 -0.03636972
v -0.09500006 0.3454546 -0.03572
v -0.08157389 0.3277348 -0.06363028
v -0.06140601 0.2881645 -0.03782064
v -0.0703235 0.3085488 -0.03707321
v -0.05103341 0.2449521 -0.03940509
v -0.0549459 0.2668664 -0.03860157
v -0.05494591 0.1785882 -0.04183843
v 0.0352662 0.9299532 -0.03638425
v -0.07700008 0.1 -0.05528
v -0.005000003 1 -0.03572
v 0.05370397 0.3028173 -0.04260143
v 0.01762361 0.2304879 -0.04334864
v -0.05103341 0.2005026 -0.04103491
v -0.04972314 0.2227274 -0.04022
v -0.02612153 0.1626073 -0.0440577
v 0.1012156 0.4572645 -0.0410292
v 0.08168125 0.3787168 -0.04182513
v -0.07700008 0.1 -0.04472
vn -0.8860122 -0.1580581 0
vn -0.8818991 -0.1795937 0
vn -0.8840211 -0.1688392 0
vn -0.8995833 -0.02738318 0
vn -0.8979837 -0.06020945 0
vn -0.8991833 -0.03833227 0
vn -0.8971841 -0.07113752 0
vn -0.8991833 0.03833243 0
vn -0.8999833 0.005478129 0
vn -0.8995833 0.02738333 0
vn -0.8999833 -0.005477978 0
vn -0.8895987 0.136433 0
vn -0.8939882 0.1038519 0
vn -0.8911944 0.125589 0
vn -0.8951864 0.09295882 0
vn -0.8971841 0.0711377 0
vn -0.8979837 0.06020961 0
vn -0.8840211 0.1688394 0
vn -0.8860122 0.1580583 0
vn -0.8951864 -0.09295866 0
vn -0.8911943 -0.1255888 0
vn -0.8939882 -0.1038517 0
vn -0.8895987 -0.1364329 0
vn -2.230877E-09 -0.02551825 -0.2998794
vn 0.007707715 -0.01119158 -0.2999658
vn 0.01314371 -0.00903222 -0.2999529
vn 0.03679503 -0.007316173 -0.2997393
vn 0.03699458 0.00270801 -0.2997451
vn 0.04246398 -0.004976116 -0.2996613
vn 0.1167072 -0.04716899 -0.2970512
vn 0.1286737 -0.06266794 -0.2961823
vn 0.1352268 -0.08382793 -0.2952752
vn 0.1422901 -0.06291325 -0.2954837
vn 0.1354159 -0.08127484 -0.2953448
vn 0.04255378 -0.004978571 0.2996599
vn 0.03687875 -0.007321951 0.2997381
vn 0.04705105 -0.0131042 0.2995579
vn 0.05155799 -0.00751115 0.2994969
vn 0.05503036 -0.01721778 0.2993837
vn 0.06108054 -0.01102535 0.2992857
vn 0.06691016 -0.01880249 0.2991042
vn 0.1372704 -0.1220294 -0.2936864
vn 0.1320731 -0.1284678 -0.2936462
vn 0.08534729 -0.122195 -0.2958574
vn -0.8097417 0.3928337 0
vn -0.8380788 0.3280611 0
vn -0.8503314 0.29485 0
vn -0.7936557 0.4243944 0
vn -0.7173418 0.5435263 0
vn -0.7381598 0.5148981 0
vn -0.7578657 0.4854271 0
vn 0.06851785 -0.005011639 0.2991247
vn 0.07428124 -0.01787216 0.2989171
vn 0.1173512 -0.03795685 -0.2971696
vn 0.09494571 -0.03732043 -0.2980664
vn 0.09656744 -0.01783645 -0.2982089
vn 0.107784 -0.03040838 -0.2976683
vn 0.06098197 -0.01102008 -0.299288
vn 0.06841871 -0.005004392 -0.2991272
vn 0.06681143 -0.01879504 -0.2991066
vn 0.1427736 -0.1036974 -0.2941773
vn 0.147383 -0.1136905 -0.2935137
vn 0.02138038 -0.003438916 0.2999132
vn 0.0261357 -0.009919685 0.2998552
vn 0.03120785 -0.003346926 0.2998175
vn 0.02606793 -0.009904263 -0.2998559
vn 0.02132225 -0.003433265 -0.2999136
vn 0.03113153 -0.00334524 -0.2998184
vn 0.0549331 -0.01721079 -0.2993857
vn 0.05146227 -0.007507585 -0.2994987
vn 0.07418328 -0.01786276 -0.2989199
vn 0.07870162 -0.03163867 -0.2986646
vn 0.04695773 -0.01309665 -0.2995596
vn 0.08658158 -0.02468667 -0.2984951
vn -0.73816 -0.5148979 0
vn -0.7173418 -0.5435261 0
vn -0.7578658 -0.485427 0
vn -0.8503316 -0.2948495 0
vn -0.8097416 -0.392834 0
vn -0.8380787 -0.3280611 0
vn -0.7936557 -0.4243944 0
vn -0.8937647 -0.1057577 0
vn -0.8791 -0.1928293 0
vn -0.8708416 -0.2272333 0
vn 0.01537252 0.002840806 -0.2999547
vn -0.8751398 0.2100722 0
vn -0.8751398 0.2100722 0
vn 0.007730419 -0.01122457 0.2999656
vn 0.01318118 -0.009055199 0.2999527
vn 0.01541778 0.002849171 0.2999545
vn 0.03707946 0.002714221 0.2997439
vn 0.1199633 -0.01729364 -0.2972671
vn 0.03192626 -0.1069261 -0.2976851
vn -2.237449E-09 -0.02559344 0.2998787
vn -8.602956E-09 -0.09840634 -0.2982014
vn -8.602953E-09 -0.09840631 -0.2982014
vn -8.602953E-09 -0.09840631 -0.2982014
vn 0.8325345 -0.3418863 0
vn 0.7901348 -0.430914 1.11882E-06
vn 0.8194846 -0.3720817 0
vn 0.7738314 -0.4595487 0
vn 0.1475547 -0.1137068 0.2935035
vn 0.1429278 -0.1037051 0.2941687
vn 0.1374271 -0.1220571 0.2936771
vn 0.7381498 -0.5149124 0
vn 0.7187682 -0.5416386 0
vn 0.1287968 -0.06263865 0.2961771
vn 0.1168115 -0.0471311 0.2970473
vn 0.1353636 -0.08381756 0.2952685
vn -0.8818991 0.1795939 0
vn 0.8683061 0.236737 0
vn 0.8889506 0.1405942 0
vn 0.8763627 0.2049108 0
vn 0.8934838 0.1081045 0
vn 0.8868936 -0.1530344 0
vn 0.8648995 -0.2488951 0
vn 0.880725 -0.1852658 0
vn 0.8552405 -0.2802923 0
vn 0.07879876 -0.03164653 0.2986617
vn 0.1424365 -0.06287538 0.2954767
vn -7.86805E-08 -0.9 0
vn 0.1355555 -0.081256 0.2953383
vn 0.7961286 0.4197372 0
vn 0.837258 0.33015 0
vn 0.8109462 0.390341 0
vn 0.8487551 0.2993573 0
vn 0.1322275 -0.1285015 0.2936368
vn 0.1174574 -0.03790121 0.2971658
vn 0.7802676 0.4485337 0
vn 0.7802674 0.4485342 0
vn 0.08667624 -0.02469732 0.298492
vn 0.09503689 -0.03732961 0.2980631
vn 0.08544762 -0.1222224 0.2958529
vn 0.03196378 -0.106936 0.2976842
vn -8.602956E-09 -0.09840634 0.2982014
vn -8.602953E-09 -0.09840631 0.2982014
vn -8.602953E-09 -0.09840631 0.2982014
vn 0.8982923 -0.05541668 0
vn 0.8956766 -0.08810972 0
vn -0.8998262 -0.0176831 0
vn -0.8998262 0.01768325 0
vn 0.1200715 -0.01721932 0.2972628
vn -0.8956702 0.08817463 0
vn -0.891514 0.1232996 0
vn 0.1078799 -0.03038585 0.2976648
vn 0.09665823 -0.01785322 0.2982055
vn 7.86805E-08 0.9 0
vn 0.6984471 -0.5676017 0
vn 0.6984473 -0.5676012 0
vn 0.8989801 0.04283516 0
vn 0.8999439 0.0100558 0
vt -0.06428 0.9461375
vt -0.06428 1
vt -0.03572 0.9461375
vt -0.03572 1
vt -0.06428 0.7277081
vt -0.06428 0.7826141
vt -0.03572 0.7277081
vt -0.03572 0.7826141
vt -0.06428 0.6177465
vt -0.06428 0.6727273
vt -0.03572 0.6177465
vt -0.03572 0.6727273
vt -0.06428 0.4535514
vt -0.06428 0.5080839
vt -0.03572 0.4535514
vt -0.03572 0.5080839
vt -0.06428 0.5628405
vt -0.03572 0.5628405
vt -0.06428 0.399317
vt -0.03572 0.399317
vt -0.06428 0.8373706
vt -0.06428 0.8919032
vt -0.03572 0.8373706
vt -0.03572 0.8919032
vt 0.005000001 1
vt 0.095 1
vt -0.03526619 0.929953
vt -0.09176785 0.7786155
vt 0.06301457 0.7826141
vt 0.060004 0.7277081
vt -0.05370393 0.3028169
vt 0.06140601 0.2881645
vt -0.01762358 0.2304876
vt 0.0549459 0.2668664
vt 0.05103341 0.2449521
vt -0.060004 0.7277081
vt 0.09176789 0.7786159
vt 0.107317 0.6991637
vt -0.05900003 0.6727273
vt 0.1141118 0.618467
vt -0.06000401 0.6177465
vt 0.1120697 0.537506
vt 0.02612155 0.1626072
vt 0.05494591 0.1785882
vt 0.06140602 0.1572902
vt -0.04336679 0.1369058
vt -0.05738064 0.1572902
vt -0.04261936 0.1572902
vt -0.05663321 0.1369058
vt -0.05528 0.1
vt -0.05592972 0.1177198
vt -0.04472 0.1
vt -0.04407028 0.1177198
vt -0.06301458 0.5628405
vt -0.06802765 0.5080839
vt 0.0703235 0.3085488
vt -0.08168121 0.3787163
vt 0.08403127 0.399317
vt 0.09500006 0.3454546
vt 0.06000401 0.6177465
vt 0.06301458 0.5628405
vt -0.1120697 0.5375055
vt 0.04972314 0.2227273
vt 0.05103341 0.2005026
vt -0.07503635 0.8919032
vt 0.06765331 0.8558585
vt -0.06802762 0.8373706
vt -0.06765328 0.8558582
vt 0.07503635 0.8919032
vt 0.06802762 0.8373706
vt -0.1141118 0.6184664
vt 0.05900003 0.6727273
vt 0.06802765 0.5080839
vt -0.1012156 0.4572639
vt -0.107317 0.6991631
vt 0.07503639 0.4535514
vt -0.03636972 0.3277348
vt -0.06428 0.3454546
vt -0.03572 0.3454546
vt -0.06363028 0.3277348
vt -0.06217936 0.2881645
vt -0.06292679 0.3085488
vt -0.03782064 0.2881645
vt -0.03707321 0.3085488
vt -0.03940509 0.2449521
vt -0.06139844 0.2668664
vt -0.03860157 0.2668664
vt -0.06059491 0.2449521
vt 0.08403122 0.9461375
vt -0.05816157 0.1785882
vt -0.04183843 0.1785882
vt -0.095 1
vt 0.0352662 0.9299532
vt -0.08403122 0.9461375
vt -0.06301457 0.7826141
vt 0.08157389 0.3277348
vt 0.07700008 0.1
vt -0.005000001 1
vt 0.07032352 0.1369058
vt 0.0815739 0.1177198
vt 0.09500008 0.1
vt 0.05740344 0.3028169
vt 0.05665494 0.2304876
vt 0.04260143 0.3028173
vt 0.04334864 0.2304879
vt -0.05103341 0.2005026
vt -0.04972314 0.2227273
vt -0.02612153 0.1626073
vt 0.05594425 0.1626072
vt 0.0440577 0.1626073
vt -0.06140601 0.2881645
vt 0.05370397 0.3028173
vt 0.01762361 0.2304879
vt 0.06216143 0.7786155
vt 0.06138514 0.6991631
vt 0.03784344 0.7786159
vt 0.03862067 0.6991637
vt 0.05897717 0.4572639
vt 0.05818067 0.3787163
vt 0.0410292 0.4572645
vt 0.04182513 0.3787168
vt 0.1012156 0.4572645
vt -0.0549459 0.2668664
vt 0.09500008 0.05528
vt 0.09500008 0.04472
vt 0.07700008 0.05528
vt 0.07700008 0.04472
vt -0.05103341 0.2449521
vt 0.06361771 0.929953
vt 0.06290864 0.8558582
vt 0.03638425 0.9299532
vt 0.03709494 0.8558585
vt -0.05494591 0.1785882
vt -0.0703235 0.3085488
vt 0.06428 1
vt 0.03572 1
vt -0.07503639 0.4535514
vt 0.08168125 0.3787168
vt -0.06140602 0.1572902
vt -0.07700008 0.1
vt -0.07032352 0.1369058
vt -0.0815739 0.1177198
vt -0.09500008 0.1
vt 0.05978328 0.5375055
vt 0.04022328 0.537506
vt -0.05978 0.2227273
vt -0.04022 0.2227273
vt -0.08157389 0.3277348
vt -0.05896509 0.2005026
vt -0.04103491 0.2005026
vt -0.09500006 0.3454546
vt -0.08403127 0.399317
vt 0.095 -0.03572
vt 0.095 -0.06428
vt 0.005000001 -0.03572
vt 0.005000001 -0.06428
vt 0.05528 0.1
vt 0.04472 0.1
vt 0.0605892 0.6184664
vt 0.03941717 0.618467

usemtl blade (Instance)
usemap blade (Instance)
f 15/33/25 14/32/24 13/31/23
f 14/32/24 15/33/25 16/34/24
f 19/37/28 18/36/27 17/35/26
f 18/36/27 19/37/28 20/38/29
f 23/41/32 22/40/31 21/39/30
f 22/40/31 23/41/32 24/42/33
f 27/45/36 26/44/35 25/43/34
f 26/44/35 27/45/36 28/46/37
f 30/48/39 21/39/30 29/47/38
f 21/39/30 30/48/39 23/41/32
f 32/50/41 25/43/34 31/49/40
f 25/43/34 32/50/41 27/45/36
f 24/42/33 17/35/26 22/40/31
f 17/35/26 24/42/33 19/37/28
f 35/53/44 34/52/43 33/51/42
f 34/52/43 35/53/44 36/54/45
f 20/38/29 33/51/42 18/36/27
f 33/51/42 20/38/29 35/53/44
f 28/46/37 29/47/38 26/44/35
f 29/47/38 28/46/37 30/48/39
f 38/57/48 14/56/47 37/55/46
f 36/54/45 13/31/23 34/52/43
f 13/31/23 36/54/45 15/33/25
f 17/60/51 18/59/50 39/58/49
f 42/63/54 41/62/53 40/61/52
f 42/63/54 44/65/56 43/64/55
f 46/68/59 45/67/58 19/66/57
f 23/71/62 47/70/61 24/69/60
f 48/72/63 47/70/61 23/71/62
f 51/75/66 50/74/65 49/73/64
f 53/78/69 51/77/68 52/76/67
f 52/76/67 51/77/68 54/79/70
f 57/82/71 56/81/72 55/80/71
f 58/83/73 56/81/72 57/82/71
f 47/70/61 46/68/59 24/69/60
f 48/72/63 23/71/62 30/84/74
f 28/85/75 48/72/63 30/84/74
f 41/62/53 59/86/76 40/61/52
f 61/89/79 31/88/78 60/87/77
f 62/92/82 29/91/81 21/90/80
f 40/61/52 61/89/79 60/87/77
f 49/73/64 64/94/84 63/93/83
f 35/97/87 65/96/86 36/95/85
f 33/100/90 34/99/89 66/98/88
f 39/58/49 33/100/90 66/98/88
f 21/90/80 22/102/92 67/101/91
f 68/104/94 26/103/93 62/92/82
f 49/73/64 50/74/65 64/94/84
f 69/105/95 17/60/51 39/58/49
f 25/106/96 26/103/93 68/104/94
f 71/109/98 61/108/98 70/107/97
f 70/107/97 61/108/98 72/110/99
f 73/113/102 59/112/101 41/111/100
f 74/114/103 59/112/101 73/113/102
f 76/117/106 43/116/105 75/115/104
f 75/115/104 43/116/105 44/118/104
f 38/57/48 13/119/107 14/56/47
f 13/119/107 38/57/48 34/99/89
f 76/117/106 41/111/100 43/116/105
f 73/113/102 41/111/100 76/117/106
f 60/87/77 31/88/78 25/106/96
f 22/102/92 17/60/51 69/105/95
f 67/101/91 22/102/92 69/105/95
f 63/93/83 44/65/56 42/63/54
f 52/76/67 54/79/70 58/83/73
f 58/83/73 54/79/70 56/81/72
f 53/78/69 50/120/108 51/77/68
f 77/121/109 50/120/108 53/78/69
f 15/124/112 78/123/111 16/122/110
f 78/123/111 15/124/112 36/95/85
f 19/66/57 45/67/58 20/125/113
f 24/69/60 46/68/59 19/66/57
f 66/98/88 34/99/89 38/57/48
f 40/61/52 72/126/114 61/89/79
f 40/61/52 59/86/76 72/126/114
f 42/63/54 43/64/55 41/62/53
f 79/127/115 51/75/66 49/73/64
f 74/114/103 72/110/99 59/112/101
f 70/107/97 72/110/99 74/114/103
f 62/92/82 21/90/80 67/101/91
f 78/123/111 80/128/116 16/122/110
f 65/96/86 78/123/111 36/95/85
f 45/67/58 65/96/86 35/97/87
f 49/73/64 63/93/83 42/63/54
f 26/103/93 29/91/81 62/92/82
f 60/87/77 25/106/96 68/104/94
f 39/58/49 18/59/50 33/100/90
f 79/127/115 54/129/117 51/75/66
f 54/129/117 79/127/115 56/130/118
f 56/130/118 79/127/115 55/131/119
f 45/67/58 35/97/87 20/125/113
f 81/134/122 42/133/121 40/132/120
f 42/133/121 81/134/122 82/135/123
f 85/138/126 84/137/125 83/136/124
f 82/135/123 49/139/127 42/133/121
f 49/139/127 82/135/123 85/140/128
f 82/143/131 81/142/130 73/141/129
f 71/109/132 31/49/40 61/108/132
f 31/49/40 71/109/132 32/50/41
f 45/146/135 69/145/134 39/144/133
f 69/145/134 45/146/135 46/147/136
f 86/150/139 60/149/138 68/148/137
f 60/149/138 86/150/139 87/151/140
f 86/152/141 48/72/63 28/85/75
f 82/143/131 73/141/129 76/153/142
f 79/156/143 57/155/143 55/154/143
f 57/155/143 79/156/143 88/157/143
f 84/137/125 82/143/131 75/158/144
f 78/161/147 66/160/146 38/159/145
f 66/160/146 78/161/147 65/162/148
f 85/138/126 82/143/131 84/137/125
f 85/138/126 83/136/124 77/163/149
f 73/141/129 81/142/130 74/164/150
f 80/166/152 38/159/145 37/165/151
f 38/159/145 80/166/152 78/161/147
f 87/168/154 86/152/141 27/167/153
f 52/171/157 88/170/156 53/169/155
f 88/170/156 52/171/157 58/172/158
f 88/170/156 58/172/158 57/173/159
f 48/175/161 68/148/137 62/174/160
f 68/148/137 48/175/161 86/150/139
f 63/176/162 75/115/104 44/118/104
f 75/115/104 63/176/162 84/177/163
f 81/142/130 70/178/164 74/164/150
f 82/143/131 76/153/142 75/158/144
f 64/179/165 84/177/163 63/176/162
f 84/177/163 64/179/165 83/180/166
f 81/142/130 87/168/154 71/181/167
f 81/142/130 71/181/167 70/178/164
f 65/162/148 39/144/133 66/160/146
f 39/144/133 65/162/148 45/146/135
f 87/168/154 27/167/153 32/182/168
f 80/185/169 14/184/169 16/183/169
f 14/184/169 80/185/169 37/186/169
f 27/167/153 86/152/141 28/85/75
f 53/169/155 85/138/126 77/163/149
f 71/181/167 87/168/154 32/182/168
f 88/170/156 85/138/126 53/169/155
f 85/140/128 79/187/170 49/139/127
f 79/187/170 85/140/128 88/188/171
f 50/120/108 83/180/166 64/179/165
f 83/180/166 50/120/108 77/121/109
f 87/151/140 40/132/120 60/149/138
f 40/132/120 87/151/140 81/134/122
f 47/190/173 62/174/160 67/189/172
f 62/174/160 47/190/173 48/175/161
f 46/147/136 67/189/172 69/145/134
f 67/189/172 46/147/136 47/190/173
