# Made using Asset Forge (www.assetforge.io) version 1.3 

mtllib OpenCrate.mtl 

v 0.4 0.025 0.4
v 0.32 0.025 0.4
v 0.4 0.05 0.4
v 0.32 0.05 0.4
v -0.4 0.025 -0.32
v -0.4 0.025 -0.4
v -0.4 0.05 -0.32
v -0.4 0.05 -0.4
v -0.32 0.025 -0.4
v -0.32 0.05 -0.4
v 0.4 0.025 0.32
v 0.4 0.05 0.32
v -0.4 0.9 0.475
v -0.4 0.82 0.475
v -0.4 0.9 0.45
v -0.4 0.82 0.45
v -0.32 0.9 0.475
v -0.32 0.9 0.45
v 0.4 0.1 0.475
v 0.4 0.18 0.475
v 0.4 0.1 0.45
v 0.4 0.18 0.45
v 0.32 0.1 0.475
v 0.32 0.1 0.45
v 0.475 0.1 -0.4
v 0.475 0.18 -0.4
v 0.45 0.1 -0.4
v 0.45 0.18 -0.4
v 0.475 0.1 -0.32
v 0.45 0.1 -0.32
v 0.475 0.9 0.4
v 0.475 0.82 0.4
v 0.45 0.82 0.4
v 0.45 0.9 0.4
v 0.475 0.9 0.32
v 0.45 0.9 0.32
v 0.4 0.1 -0.475
v 0.32 0.1 -0.475
v 0.32 0.1 -0.45
v 0.4 0.1 -0.45
v 0.4 0.18 -0.475
v 0.4 0.18 -0.45
v -0.4 0.9 -0.475
v -0.32 0.9 -0.475
v -0.4 0.9 -0.45
v -0.32 0.9 -0.45
v -0.4 0.82 -0.475
v -0.4 0.82 -0.45
v -0.125 0.05 0.4
v -0.125 0.1 0.4
v -0.15 0.1 0.4
v -0.15 0.9 0.4
v -0.4 0.9 0.4
v -0.4 0.1 0.4
v 0.125 0.9 0.4
v 0 0.9 0.4
v -0.125 0.9 0.4
v 0.125 0.1 0.4
v 0.15 0.05 0.4
v 0.125 0.05 0.4
v 0 0 0.4
v -0.15 0.05 0.4
v -0.4 0 0.4
v -0.4 0.05 0.4
v 0.4 0 0.4
v 0.15 0.1 0.4
v 0.4 0.1 0.4
v 0.15 0.9 0.4
v 0.4 0.9 0.4
v -0.15 0.1 -0.4
v -0.125 0.1 -0.4
v -0.125 0.05 -0.4
v 0 0 -0.4
v 0.125 0.05 -0.4
v 0.125 0.1 -0.4
v 0.15 0.05 -0.4
v 0.4 0.05 -0.4
v 0.4 0 -0.4
v -0.125 0.9 -0.4
v 0 0.9 -0.4
v 0.125 0.9 -0.4
v 0.15 0.1 -0.4
v 0.4 0.1 -0.4
v 0.15 0.9 -0.4
v 0.4 0.9 -0.4
v -0.4 0 -0.4
v -0.15 0.05 -0.4
v -0.4 0.1 -0.4
v -0.15 0.9 -0.4
v -0.4 0.9 -0.4
v 0.15 0.1 -0.45
v 0.125 0.1 0.45
v 0.15 0.1 0.45
v 0.4 0.1 0.5
v 0 0.1 0.5
v -0.15 0.1 0.45
v -0.125 0.1 0.45
v -0.15 0.1 2.235174E-08
v -0.4 0.1 0.15
v -0.45 0.1 0.15
v -0.4 0.1 0.125
v -0.45 0.1 0.125
v -0.5 0.1 2.235174E-08
v -0.45 0.1 2.235174E-08
v -0.45 0.1 -0.125
v -0.45 0.1 -0.15
v -0.4 0.1 -0.125
v -0.4 0.1 -0.15
v -0.125 0.1 -0.45
v -0.15 0.1 -0.45
v -0.4 0.1 -0.5
v 0 0.1 -0.5
v -0.4 0.1 -0.45
v 0.125 0.1 -0.45
v -0.5 0.1 -0.4
v -0.45 0.1 -0.4
v -0.5 0.1 0.4
v -0.45 0.1 0.4
v -0.4 0.1 2.235174E-08
v -0.4 0.1 0.5
v -0.4 0.1 0.45
v 0.4 0.1 0.15
v 0.15 0.1 2.235174E-08
v 0.4 0.1 -0.125
v 0.4 0.1 -0.15
v 0.45 0.1 -0.15
v 0.5 0.1 2.235174E-08
v 0.45 0.1 -0.125
v 0.45 0.1 2.235174E-08
v 0.45 0.1 0.125
v 0.45 0.1 0.15
v 0.5 0.1 0.4
v 0.45 0.1 0.4
v 0.5 0.1 -0.4
v 0.4 0.1 2.235174E-08
v 0.4 0.1 0.125
v 0.4 0.1 -0.5
v 0.4 0.9 2.235174E-08
v 0.4 0.9 0.125
v 0.4 0.9 -0.125
v 0.5 0.9 0.4
v 0.5 0 2.235174E-08
v 0.5 0 -0.5
v 0.5 0.9 -0.4
v 0.5 1 2.235174E-08
v 0.5 1 -0.5
v 0.5 1 0.5
v 0.5 0 0.5
v 0.5 0.9 2.235174E-08
v -0.4 1 0.4
v 0 1 0.4
v 0 1 0.5
v 0.4 1 0.4
v 0.4 1 -0.4
v 0 1 -0.5
v -0.5 1 -0.5
v -0.4 1 -0.4
v -0.5 1 2.235174E-08
v 0 1 -0.4
v -0.5 1 0.5
v 0.4 0.95 -0.4
v 0.4 0.95 0.4
v 0 0.95 0.4
v -0.4 0.95 0.4
v -0.4 0.95 -0.4
v 0 0.95 -0.4
v -0.5 0.9 0.4
v -0.5 0.9 2.235174E-08
v -0.5 0.9 -0.4
v -0.5 0 -0.5
v -0.5 0 2.235174E-08
v -0.5 0 0.5
v -0.45 0.9 -0.4
v -0.4 0.9 -0.15
v -0.45 0.9 0.4
v -0.4 0.9 0.15
v -0.4 0.9 0.5
v -0.4 0.9 2.235174E-08
v -0.4 0.9 -0.125
v -0.4 0.9 0.125
v 0 0 0.5
v 0.4 0.9 0.5
v 0 0.9 0.5
v 0.4 0.9 0.45
v 0.45 0.9 -0.4
v 0.4 0.9 0.15
v 0.4 0.9 -0.15
v 0 0.9 -0.375
v -0.125 0.9 -0.45
v -0.375 0.9 -0.375
v -0.375 0.9 2.235174E-08
v -0.375 0.9 0.375
v -0.45 0.9 0.15
v -0.45 0.9 0.125
v -0.45 0.9 -0.15
v -0.45 0.9 -0.125
v -0.45 0.9 2.235174E-08
v 0 0.9 0.375
v -0.125 0.9 0.45
v -0.15 0.9 0.45
v 0.125 0.9 0.45
v 0.15 0.9 0.45
v 0.375 0.9 0.375
v 0.375 0.9 2.235174E-08
v 0.375 0.9 -0.375
v 0.45 0.9 -0.15
v 0.45 0.9 -0.125
v 0.45 0.9 0.15
v 0.45 0.9 0.125
v 0.45 0.9 2.235174E-08
v 0.15 0.9 -0.45
v 0.125 0.9 -0.45
v 0 0.9 -0.5
v 0 0.9 -0.45
v -0.4 0.9 -0.5
v -0.15 0.9 -0.45
v 0.4 0.9 -0.5
v 0.4 0.9 -0.45
v 0 0.9 0.45
v 0 0 -0.5
v -0.475 0.1 -0.4
v -0.475 0.1 -0.32
v -0.45 0.1 -0.32
v -0.475 0.18 -0.4
v -0.45 0.18 -0.4
v -0.475 0.9 0.4
v -0.475 0.9 0.32
v -0.45 0.9 0.32
v -0.475 0.82 0.4
v -0.45 0.82 0.4
v 0.375 0.95 -0.375
v 0 0.95 -0.375
v -0.375 0.95 -0.375
v -0.375 0.95 0.375
v 0.375 0.95 0.375
v 0 0.95 0.375
vn 0 0 1
vn -1 0 0
vn 0 0 -1
vn 1 0 0
vn 0 1 0
vn 0 -1 0
vn 0.7071068 0 -0.7071068
vn -0.7071068 0 0.7071068
vn 0.7071068 0.7071068 0
vn -0.7071068 -0.7071068 0
vn 0 0.7071068 -0.7071068
vn 0 -0.7071068 0.7071068
vt 0.4 0.025
vt 0.32 0.025
vt 0.4 0.05
vt 0.32 0.05
vt -0.32 0.025
vt -0.4 0.025
vt -0.32 0.05
vt -0.4 0.05
vt -0.32 0.025
vt -0.4 0.025
vt -0.32 0.05
vt -0.4 0.05
vt 0.475 0.9
vt 0.475 0.82
vt 0.45 0.9
vt 0.45 0.82
vt 0.32 0.475
vt 0.4 0.475
vt 0.4 0.45
vt 0.32 0.45
vt -0.475 0.1
vt -0.475 0.18
vt -0.45 0.1
vt -0.45 0.18
vt -0.32 -0.475
vt -0.4 -0.475
vt -0.32 -0.45
vt -0.4 -0.45
vt -0.475 0.1
vt -0.475 0.18
vt -0.45 0.1
vt -0.45 0.18
vt -0.475 0.32
vt -0.475 0.4
vt -0.45 0.4
vt -0.45 0.32
vt 0.475 0.9
vt 0.475 0.82
vt 0.45 0.82
vt 0.45 0.9
vt -0.475 0.32
vt -0.475 0.4
vt -0.45 0.4
vt -0.45 0.32
vt -0.4 0.475
vt -0.32 0.475
vt -0.32 0.45
vt -0.4 0.45
vt 0.475 0.18
vt 0.475 0.1
vt 0.45 0.18
vt 0.45 0.1
vt 0.4 -0.475
vt 0.32 -0.475
vt 0.4 -0.45
vt 0.32 -0.45
vt -0.475 0.82
vt -0.475 0.9
vt -0.45 0.82
vt -0.45 0.9
vt 0.125 0.05
vt 0.125 0.1
vt 0.15 0.1
vt 0.15 0.9
vt 0.4 0.9
vt 0.4 0.1
vt -0.125 0.9
vt 0 0.9
vt 0.125 0.9
vt -0.125 0.1
vt -0.15 0.05
vt -0.125 0.05
vt 0 0
vt 0.15 0.05
vt 0.4 0
vt -0.4 0
vt -0.4 0.05
vt -0.15 0.1
vt -0.4 0.1
vt -0.15 0.9
vt -0.4 0.9
vt -0.15 -0.45
vt -0.15 -0.4
vt -0.125 -0.4
vt 0.125 -0.4
vt -0.125 0.4
vt -0.125 0.45
vt -0.15 0.45
vt -0.4 0.5
vt 0 0.5
vt 0.15 0.45
vt 0.125 0.45
vt 0.15 0.4
vt 0.125 0.4
vt 0.15 2.235174E-08
vt 0.4 0.15
vt 0.45 0.15
vt 0.4 0.125
vt 0.45 0.125
vt 0.5 2.235174E-08
vt 0.45 2.235174E-08
vt 0.45 -0.125
vt 0.45 -0.15
vt 0.4 -0.125
vt 0.4 -0.15
vt 0.4 -0.4
vt 0.15 -0.4
vt 0.125 -0.45
vt 0.15 -0.45
vt 0.4 -0.5
vt 0 -0.5
vt -0.125 -0.45
vt 0.5 -0.4
vt 0.45 -0.4
vt 0.5 0.4
vt 0.45 0.4
vt 0.4 2.235174E-08
vt 0.4 0.4
vt 0.4 0.5
vt -0.4 0.45
vt -0.15 0.4
vt -0.4 0.15
vt -0.15 2.235174E-08
vt -0.4 -0.125
vt -0.4 -0.15
vt -0.45 -0.15
vt -0.5 2.235174E-08
vt -0.45 -0.125
vt -0.45 2.235174E-08
vt -0.45 0.125
vt -0.45 0.15
vt -0.5 0.4
vt -0.5 -0.4
vt -0.45 -0.4
vt -0.4 2.235174E-08
vt -0.4 0.125
vt -0.4 0.4
vt -0.4 -0.4
vt -0.4 -0.5
vt -0.4 -0.45
vt 2.235174E-08 0.9
vt 0.125 0.9
vt 0.125 0.1
vt -0.125 0.1
vt -0.125 0.9
vt 2.235174E-08 0.1
vt -0.45 0.9
vt -0.5 0.9
vt -0.5 0.1
vt -2.235174E-08 0
vt -2.235174E-08 0.1
vt 0.4 0.1
vt 0.5 0
vt 0.4 0.9
vt -2.235174E-08 1
vt 0.5 1
vt -0.5 1
vt -0.4 0.9
vt -0.4 0.1
vt -0.5 0
vt -2.235174E-08 0.9
vt 0 0.4
vt -0.5 0.5
vt -0.5 -0.5
vt 0.5 -0.5
vt 0 -0.4
vt 0.5 0.5
vt -0.4 1
vt 0.4 1
vt -0.4 0.95
vt 0.4 0.95
vt 0 0.95
vt -0.4 0.95
vt -0.4 1
vt 0 1
vt 0.4 1
vt 0.4 0.95
vt -0.4 1
vt 0.4 1
vt -0.4 0.95
vt 0.4 0.95
vt 0.4 0.9
vt 2.235174E-08 1
vt -0.5 1
vt -0.4 0.9
vt -0.4 0.1
vt -0.5 0
vt 2.235174E-08 0
vt 0.5 0
vt 0.4 0.1
vt 0.5 1
vt 0.15 0.1
vt 0.15 0.9
vt 0.45 0.1
vt 0.5 0.1
vt 0.5 0.9
vt -0.15 0.1
vt -0.15 0.9
vt -0.45 0.9
vt 0.125 0.9
vt 0.125 0.1
vt -0.125 0.1
vt -0.125 0.9
vt 0 0.1
vt 0.45 0.1
vt 0.15 0.1
vt 0.15 0.9
vt -0.15 0.1
vt -0.15 0.9
vt 0 0.375
vt 0 0.4
vt 0.125 0.4
vt 0.125 0.45
vt 0.15 0.4
vt 0.4 0.4
vt 0.375 0.375
vt 0.4 0.15
vt 0.375 -2.235174E-08
vt 0.375 -0.375
vt 0.4 -0.15
vt 0.4 -0.125
vt 0.45 -0.15
vt 0.45 -0.125
vt 0.5 -2.235174E-08
vt 0.45 0.15
vt 0.45 0.125
vt 0.45 0.4
vt 0.5 0.4
vt 0.45 -2.235174E-08
vt 0.5 -0.4
vt 0.45 -0.4
vt 0 -0.375
vt 0.15 -0.4
vt 0.125 -0.45
vt 0.125 -0.4
vt 0.15 -0.45
vt 0 -0.5
vt -0.125 -0.45
vt -0.15 -0.45
vt -0.125 -0.4
vt -0.15 -0.4
vt -0.375 -0.375
vt -0.4 -0.4
vt -0.4 -0.15
vt -0.375 -2.235174E-08
vt -0.4 -0.125
vt -0.4 -2.235174E-08
vt -0.375 0.375
vt -0.4 0.15
vt -0.4 0.125
vt -0.45 0.15
vt -0.45 0.125
vt -0.5 -2.235174E-08
vt -0.45 -0.15
vt -0.45 -0.125
vt -0.45 -0.4
vt -0.5 -0.4
vt -0.45 -2.235174E-08
vt -0.5 0.4
vt -0.4 0.4
vt -0.15 0.4
vt -0.15 0.45
vt -0.125 0.4
vt -0.125 0.45
vt 0 0.5
vt 0 0.45
vt 0.4 0.5
vt 0.15 0.45
vt 0.4 0.45
vt -0.4 0.5
vt -0.4 -0.5
vt 0 -0.45
vt 0.4 -0.5
vt 0.4 -0.45
vt 0 -0.4
vt 0.4 -0.4
vt 0.4 -2.235174E-08
vt 0.4 0.125
vt -0.45 0.1
vt -0.5 0.9
vt -0.5 0.1
vt 0.45 0.9
vt 0.5 0.1
vt 0.5 0.9
vt 0.4 0.05
vt -0.4 0
vt 0.4 0
vt -0.5 0.5
vt -0.5 -0.5
vt 0.5 -0.5
vt 0.5 0.5
vt 0.4 0.05
vt -0.4 0
vt 0.4 0
vt 0.475 0.4
vt 0.475 0.32
vt 0.45 0.32
vt 0.475 0.18
vt 0.475 0.1
vt 0.45 0.18
vt 0.475 0.4
vt 0.475 0.32
vt 0.45 0.32
vt -0.475 0.82
vt -0.475 0.9
vt -0.45 0.82
vt -0.32 -0.4
vt -0.4 -0.32
vt 0.32 0.4
vt 0.4 0.32
vt -0.4 0.025
vt 0.4 -0.32
vt 0.32 -0.4
vt -0.4 0.32
vt -0.32 0.4
vt -0.32 0.1
vt -0.4 0.18
vt 0.32 0.9
vt 0.4 0.82
vt 0.4 0.18
vt 0.32 0.1
vt -0.4 0.82
vt -0.32 0.9
vt -0.4 0.475
vt 0.4 -0.475
vt -0.475 -0.4
vt -0.475 -0.4
vt -0.32 0.1
vt -0.4 0.18
vt 0.32 0.9
vt 0.4 0.82
vt -0.4 0.82
vt -0.32 0.9
vt 0.4 0.18
vt 0.32 0.1
vt 0.4 0.475
vt -0.4 -0.475
vt 0.475 -0.4
vt 0.475 -0.4
vt -0.375 -0.375
vt 0 -0.375
vt 0.375 -0.375
vt 0.375 0.375
vt -0.375 0.375
vt 0 0.375
vt -0.375 0.9
vt -0.375 0.95
vt 0.375 0.95
vt 0.375 0.9
vt -0.375 0.9
vt -0.375 0.95
vt 0.375 0.95
vt 0.375 0.9
vt 0.375 0.95
vt 0.375 0.9
vt -0.375 0.9
vt -0.375 0.95

usemtl Wood_Darker (Instance) (Instance)
usemap Wood_Darker (Instance) (Instance)
f 3/3/1 2/2/1 1/1/1
f 3/3/1 4/4/1 2/2/1
f 7/7/2 6/6/2 5/5/2
f 7/7/2 8/8/2 6/6/2
f 8/3/3 9/2/3 6/1/3
f 8/3/3 10/4/3 9/2/3
f 12/11/4 1/10/4 11/9/4
f 12/11/4 3/12/4 1/10/4
f 15/15/2 14/14/2 13/13/2
f 15/15/2 16/16/2 14/14/2
f 15/19/5 13/18/5 17/17/5
f 18/20/5 15/19/5 17/17/5
f 21/23/4 20/22/4 19/21/4
f 21/23/4 22/24/4 20/22/4
f 24/27/6 19/26/6 23/25/6
f 24/27/6 21/28/6 19/26/6
f 27/31/3 26/30/3 25/29/3
f 27/31/3 28/32/3 26/30/3
f 27/35/6 25/34/6 29/33/6
f 30/36/6 27/35/6 29/33/6
f 33/39/1 32/38/1 31/37/1
f 34/40/1 33/39/1 31/37/1
f 34/43/5 31/42/5 35/41/5
f 36/44/5 34/43/5 35/41/5
f 39/47/6 38/46/6 37/45/6
f 40/48/6 39/47/6 37/45/6
f 42/51/4 37/50/4 41/49/4
f 42/51/4 40/52/4 37/50/4
f 45/55/5 44/54/5 43/53/5
f 45/55/5 46/56/5 44/54/5
f 48/59/2 43/58/2 47/57/2
f 48/59/2 45/60/2 43/58/2
f 51/63/3 50/62/3 49/61/3
f 53/65/3 52/64/3 51/63/3
f 53/65/3 51/63/3 54/66/3
f 56/68/3 55/67/3 50/62/3
f 50/62/3 57/69/3 56/68/3
f 55/67/3 58/70/3 50/62/3
f 60/72/3 58/70/3 59/71/3
f 59/71/3 61/73/3 60/72/3
f 61/73/3 63/75/3 62/74/3
f 63/75/3 64/3/3 62/74/3
f 59/71/3 65/76/3 61/73/3
f 59/71/3 3/77/3 65/76/3
f 58/70/3 66/78/3 59/71/3
f 68/80/3 67/79/3 66/78/3
f 68/80/3 69/81/3 67/79/3
f 61/73/3 49/61/3 60/72/3
f 61/73/3 62/74/3 49/61/3
f 62/74/3 51/63/3 49/61/3
f 72/72/1 71/70/1 70/78/1
f 74/61/1 72/72/1 73/73/1
f 76/74/1 75/62/1 74/61/1
f 78/75/1 77/3/1 76/74/1
f 80/68/1 79/67/1 75/62/1
f 75/62/1 81/69/1 80/68/1
f 76/74/1 82/63/1 75/62/1
f 84/64/1 82/63/1 83/66/1
f 85/65/1 84/64/1 83/66/1
f 73/73/1 76/74/1 74/61/1
f 73/73/1 78/75/1 76/74/1
f 87/71/1 86/76/1 73/73/1
f 87/71/1 8/77/1 86/76/1
f 72/72/1 87/71/1 73/73/1
f 79/67/1 71/70/1 75/62/1
f 89/80/1 88/79/1 70/78/1
f 89/80/1 90/81/1 88/79/1
f 72/72/1 70/78/1 87/71/1
f 75/84/5 82/83/5 91/82/5
f 58/86/5 75/84/5 71/85/5
f 93/88/5 58/86/5 92/87/5
f 95/90/5 94/89/5 93/88/5
f 97/92/5 96/91/5 95/90/5
f 97/92/5 50/94/5 51/93/5
f 99/96/5 51/93/5 98/95/5
f 101/98/5 100/97/5 99/96/5
f 101/98/5 102/99/5 100/97/5
f 102/99/5 104/101/5 103/100/5
f 106/103/5 103/100/5 105/102/5
f 108/105/5 106/103/5 107/104/5
f 70/107/5 88/106/5 108/105/5
f 110/109/5 70/107/5 109/108/5
f 112/111/5 111/110/5 110/109/5
f 111/110/5 113/55/5 110/109/5
f 112/111/5 109/108/5 114/112/5
f 112/111/5 110/109/5 109/108/5
f 106/103/5 116/114/5 115/113/5
f 106/103/5 105/102/5 107/104/5
f 106/103/5 115/113/5 103/100/5
f 103/100/5 104/101/5 105/102/5
f 102/99/5 103/100/5 100/97/5
f 103/100/5 117/115/5 100/97/5
f 117/115/5 118/116/5 100/97/5
f 98/95/5 108/105/5 107/104/5
f 98/95/5 70/107/5 108/105/5
f 107/104/5 119/117/5 98/95/5
f 99/96/5 98/95/5 101/98/5
f 98/95/5 119/117/5 101/98/5
f 99/96/5 54/118/5 51/93/5
f 96/91/5 121/19/5 120/119/5
f 97/92/5 51/93/5 96/91/5
f 96/91/5 120/119/5 95/90/5
f 94/89/5 21/120/5 93/88/5
f 93/88/5 92/87/5 95/90/5
f 92/87/5 97/92/5 95/90/5
f 93/88/5 66/121/5 58/86/5
f 123/123/5 66/121/5 122/122/5
f 125/125/5 123/123/5 124/124/5
f 124/124/5 126/126/5 125/125/5
f 128/128/5 127/127/5 126/126/5
f 128/128/5 129/129/5 127/127/5
f 131/131/5 127/127/5 130/130/5
f 131/131/5 133/43/5 132/132/5
f 131/131/5 132/132/5 127/127/5
f 127/127/5 129/129/5 130/130/5
f 127/127/5 134/133/5 126/126/5
f 134/133/5 27/134/5 126/126/5
f 124/124/5 128/128/5 126/126/5
f 123/123/5 135/135/5 124/124/5
f 136/136/5 135/135/5 123/123/5
f 123/123/5 122/122/5 136/136/5
f 122/122/5 130/130/5 136/136/5
f 122/122/5 131/131/5 130/130/5
f 66/121/5 67/137/5 122/122/5
f 58/86/5 71/85/5 50/94/5
f 70/107/5 71/85/5 109/108/5
f 125/125/5 82/83/5 123/123/5
f 125/125/5 83/138/5 82/83/5
f 91/82/5 112/111/5 114/112/5
f 91/82/5 137/139/5 112/111/5
f 91/82/5 40/140/5 137/139/5
f 114/112/5 75/84/5 91/82/5
f 136/143/2 139/142/2 138/141/2
f 138/141/2 140/145/2 124/144/2
f 124/144/2 135/146/2 138/141/2
f 135/146/2 136/143/2 138/141/2
f 141/148/3 133/31/3 34/147/3
f 141/148/3 132/149/3 133/31/3
f 134/152/4 127/151/4 142/150/4
f 144/154/4 134/152/4 143/153/4
f 146/156/4 145/155/4 144/154/4
f 141/158/4 145/155/4 147/157/4
f 148/160/4 132/159/4 141/158/4
f 147/157/4 148/160/4 141/158/4
f 141/158/4 149/161/4 145/155/4
f 145/155/4 149/161/4 144/154/4
f 143/153/4 146/156/4 144/154/4
f 148/160/4 142/150/4 132/159/4
f 142/150/4 127/151/4 132/159/4
f 134/152/4 142/150/4 143/153/4
f 152/90/5 151/162/5 150/118/5
f 153/137/5 152/90/5 147/163/5
f 145/127/5 154/138/5 153/137/5
f 145/127/5 146/164/5 154/138/5
f 146/164/5 155/111/5 154/138/5
f 157/106/5 155/111/5 156/165/5
f 157/106/5 156/165/5 158/100/5
f 157/106/5 159/166/5 155/111/5
f 155/111/5 159/166/5 154/138/5
f 153/137/5 147/163/5 145/127/5
f 153/137/5 151/162/5 152/90/5
f 158/100/5 150/118/5 157/106/5
f 158/100/5 160/167/5 150/118/5
f 160/167/5 152/90/5 150/118/5
f 161/170/2 153/169/2 154/168/2
f 161/170/2 162/171/2 153/169/2
f 153/174/3 162/173/3 163/172/3
f 163/172/3 151/175/3 153/174/3
f 163/172/3 150/176/3 151/175/3
f 163/172/3 164/177/3 150/176/3
f 164/180/4 157/179/4 150/178/4
f 164/180/4 165/181/4 157/179/4
f 157/174/1 165/173/1 166/172/1
f 166/172/1 159/175/1 157/174/1
f 166/172/1 154/176/1 159/175/1
f 166/172/1 161/177/1 154/176/1
f 158/183/2 168/141/2 167/182/2
f 169/185/2 158/183/2 156/184/2
f 156/184/2 170/187/2 115/186/2
f 170/187/2 171/188/2 115/186/2
f 117/190/2 171/188/2 172/189/2
f 172/189/2 160/191/2 117/190/2
f 117/190/2 103/146/2 171/188/2
f 171/188/2 103/146/2 115/186/2
f 115/186/2 169/185/2 156/184/2
f 169/185/2 168/141/2 158/183/2
f 160/191/2 167/182/2 117/190/2
f 160/191/2 158/183/2 167/182/2
f 169/148/1 116/31/1 173/147/1
f 169/148/1 115/149/1 116/31/1
f 90/154/4 108/192/4 88/152/4
f 90/154/4 174/193/4 108/192/4
f 117/195/3 175/40/3 118/194/3
f 117/195/3 167/196/3 175/40/3
f 53/158/4 54/159/4 99/197/4
f 176/198/4 53/158/4 99/197/4
f 177/148/4 121/23/4 15/199/4
f 177/148/4 120/149/4 121/23/4
f 107/201/4 179/200/4 178/161/4
f 178/161/4 180/203/4 101/202/4
f 101/202/4 119/151/4 178/161/4
f 119/151/4 107/201/4 178/161/4
f 94/66/1 95/204/1 181/73/1
f 182/65/1 94/66/1 148/189/1
f 147/191/1 152/175/1 182/65/1
f 177/81/1 152/175/1 160/157/1
f 172/160/1 120/79/1 177/81/1
f 160/157/1 172/160/1 177/81/1
f 177/81/1 183/68/1 152/175/1
f 152/175/1 183/68/1 182/65/1
f 148/189/1 147/191/1 182/65/1
f 172/160/1 181/73/1 120/79/1
f 181/73/1 95/204/1 120/79/1
f 94/66/1 181/73/1 148/189/1
f 94/195/2 184/15/2 21/205/2
f 94/195/2 182/196/2 184/15/2
f 134/195/1 185/40/1 27/194/1
f 134/195/1 144/196/1 185/40/1
f 69/182/2 122/206/2 67/190/2
f 69/182/2 186/207/2 122/206/2
f 187/209/2 83/186/2 125/208/2
f 187/209/2 85/185/2 83/186/2
f 79/212/6 80/211/6 188/210/6
f 89/214/6 189/213/6 79/212/6
f 190/216/6 90/215/6 89/214/6
f 190/216/6 191/218/6 174/217/6
f 176/220/6 191/218/6 192/219/6
f 176/220/6 193/222/6 180/221/6
f 193/222/6 168/224/6 194/223/6
f 196/226/6 168/224/6 195/225/6
f 169/228/6 173/227/6 195/225/6
f 168/224/6 169/228/6 195/225/6
f 196/226/6 197/229/6 168/224/6
f 168/224/6 197/229/6 194/223/6
f 193/222/6 167/230/6 168/224/6
f 193/222/6 175/231/6 167/230/6
f 193/222/6 194/223/6 180/221/6
f 52/233/6 192/219/6 198/232/6
f 57/235/6 199/234/6 52/233/6
f 199/234/6 183/237/6 200/236/6
f 202/239/6 183/237/6 201/238/6
f 68/241/6 202/239/6 55/240/6
f 69/243/6 68/241/6 203/242/6
f 203/242/6 204/245/6 186/244/6
f 204/245/6 138/247/6 139/246/6
f 187/249/6 204/245/6 205/248/6
f 187/249/6 206/251/6 140/250/6
f 206/251/6 149/253/6 207/252/6
f 209/255/6 149/253/6 208/254/6
f 141/257/6 34/256/6 208/254/6
f 149/253/6 141/257/6 208/254/6
f 209/255/6 210/258/6 149/253/6
f 149/253/6 210/258/6 207/252/6
f 206/251/6 144/259/6 149/253/6
f 206/251/6 185/35/6 144/259/6
f 206/251/6 207/252/6 140/250/6
f 205/248/6 85/260/6 187/249/6
f 205/248/6 84/261/6 85/260/6
f 81/263/6 211/262/6 84/261/6
f 81/263/6 212/264/6 211/262/6
f 212/264/6 214/266/6 213/265/6
f 216/268/6 215/267/6 213/265/6
f 216/268/6 45/269/6 215/267/6
f 212/264/6 213/265/6 211/262/6
f 213/265/6 217/270/6 211/262/6
f 217/270/6 218/48/6 211/262/6
f 187/249/6 140/250/6 204/245/6
f 140/250/6 138/247/6 204/245/6
f 204/245/6 139/246/6 186/244/6
f 139/246/6 209/255/6 186/244/6
f 209/255/6 208/254/6 186/244/6
f 186/244/6 69/243/6 203/242/6
f 202/239/6 184/28/6 182/271/6
f 202/239/6 201/238/6 55/240/6
f 202/239/6 182/271/6 183/237/6
f 183/237/6 219/272/6 201/238/6
f 183/237/6 177/273/6 200/236/6
f 177/273/6 15/274/6 200/236/6
f 199/234/6 219/272/6 183/237/6
f 199/234/6 200/236/6 52/233/6
f 68/241/6 198/232/6 203/242/6
f 68/241/6 55/240/6 198/232/6
f 55/240/6 56/275/6 198/232/6
f 198/232/6 57/235/6 52/233/6
f 198/232/6 56/275/6 57/235/6
f 52/233/6 53/276/6 192/219/6
f 53/276/6 176/220/6 192/219/6
f 176/220/6 180/221/6 191/218/6
f 180/221/6 178/277/6 191/218/6
f 191/218/6 178/277/6 179/278/6
f 191/218/6 179/278/6 174/217/6
f 179/278/6 196/226/6 174/217/6
f 196/226/6 195/225/6 174/217/6
f 190/216/6 174/217/6 90/215/6
f 89/214/6 216/268/6 189/213/6
f 216/268/6 213/265/6 189/213/6
f 213/265/6 214/266/6 189/213/6
f 205/248/6 188/210/6 84/261/6
f 188/210/6 81/263/6 84/261/6
f 188/210/6 80/211/6 81/263/6
f 188/210/6 190/216/6 89/214/6
f 89/214/6 79/212/6 188/210/6
f 217/280/2 40/279/2 218/60/2
f 217/280/2 137/281/2 40/279/2
f 155/175/3 213/68/3 215/65/3
f 217/81/3 155/175/3 146/157/3
f 146/157/3 143/160/3 137/79/3
f 143/160/3 220/73/3 137/79/3
f 111/66/3 220/73/3 170/189/3
f 170/189/3 156/191/3 111/66/3
f 111/66/3 112/204/3 220/73/3
f 220/73/3 112/204/3 137/79/3
f 137/79/3 217/81/3 146/157/3
f 217/81/3 213/68/3 155/175/3
f 156/191/3 215/65/3 111/66/3
f 156/191/3 155/175/3 215/65/3
f 111/283/4 45/282/4 113/52/4
f 111/283/4 215/284/4 45/282/4
f 78/286/2 3/285/2 77/8/2
f 78/286/2 65/287/2 3/285/2
f 220/265/6 73/211/6 86/215/6
f 78/260/6 220/265/6 143/288/6
f 65/243/6 78/260/6 142/253/6
f 148/289/6 181/237/6 65/243/6
f 63/276/6 181/237/6 172/290/6
f 63/276/6 172/290/6 171/224/6
f 63/276/6 61/275/6 181/237/6
f 181/237/6 61/275/6 65/243/6
f 142/253/6 148/289/6 65/243/6
f 78/260/6 143/288/6 142/253/6
f 78/260/6 73/211/6 220/265/6
f 86/215/6 63/276/6 171/224/6
f 171/224/6 170/291/6 86/215/6
f 170/291/6 220/265/6 86/215/6
f 63/293/4 8/292/4 64/12/4
f 63/293/4 86/294/4 8/292/4
f 116/227/6 222/296/6 221/295/6
f 116/227/6 223/297/6 222/296/6
f 225/300/3 221/299/3 224/298/3
f 225/300/3 116/194/3 221/299/3
f 175/116/5 227/302/5 226/301/5
f 175/116/5 228/303/5 227/302/5
f 230/306/1 226/305/1 229/304/1
f 230/306/1 175/147/1 226/305/1

usemtl Wood_Light (Instance) (Instance)
usemap Wood_Light (Instance) (Instance)
f 11/308/6 1/243/6 2/307/6
f 5/310/6 9/309/6 11/308/6
f 5/310/6 6/215/6 9/309/6
f 5/310/6 11/308/6 2/307/6
f 12/77/7 9/2/7 10/4/7
f 12/77/7 11/311/7 9/2/7
f 10/313/5 8/106/5 7/312/5
f 7/312/5 4/315/5 12/314/5
f 4/315/5 3/137/5 12/314/5
f 12/314/5 10/313/5 7/312/5
f 5/311/8 2/2/8 4/4/8
f 7/77/8 5/311/8 4/4/8
f 22/317/3 21/79/3 24/316/3
f 18/318/3 22/317/3 24/316/3
f 16/319/3 15/65/3 18/318/3
f 24/316/3 16/319/3 18/318/3
f 23/321/1 19/66/1 20/320/1
f 17/323/1 14/322/1 23/321/1
f 17/323/1 13/81/1 14/322/1
f 17/323/1 23/321/1 20/320/1
f 17/17/9 20/324/9 22/120/9
f 18/20/9 17/17/9 22/120/9
f 24/27/10 14/325/10 16/274/10
f 24/27/10 23/25/10 14/325/10
f 36/44/11 26/326/11 28/134/11
f 36/44/11 35/41/11 26/326/11
f 30/36/12 32/327/12 33/256/12
f 30/36/12 29/33/12 32/327/12
f 28/329/2 27/186/2 30/328/2
f 30/328/2 33/331/2 36/330/2
f 33/331/2 34/182/2 36/330/2
f 36/330/2 28/329/2 30/328/2
f 35/333/4 31/158/4 32/332/4
f 29/335/4 26/334/4 35/333/4
f 29/335/4 25/152/4 26/334/4
f 29/335/4 35/333/4 32/332/4
f 47/336/10 38/46/10 39/47/10
f 48/269/10 47/336/10 39/47/10
f 42/140/9 44/54/9 46/56/9
f 42/140/9 41/337/9 44/54/9
f 39/321/1 40/66/1 42/320/1
f 48/322/1 39/321/1 42/320/1
f 46/323/1 45/81/1 48/322/1
f 42/320/1 46/323/1 48/322/1
f 47/319/3 43/65/3 44/318/3
f 47/319/3 41/317/3 38/316/3
f 41/317/3 37/79/3 38/316/3
f 47/319/3 44/318/3 41/317/3
f 228/333/4 175/158/4 230/332/4
f 225/334/4 228/333/4 230/332/4
f 223/335/4 116/152/4 225/334/4
f 230/332/4 223/335/4 225/334/4
f 224/329/2 221/186/2 222/328/2
f 224/329/2 229/331/2 227/330/2
f 229/331/2 226/182/2 227/330/2
f 224/329/2 222/328/2 229/331/2
f 224/338/11 227/302/11 228/303/11
f 225/114/11 224/338/11 228/303/11
f 229/339/12 222/296/12 223/297/12
f 230/231/12 229/339/12 223/297/12

usemtl Light_Grey (Instance) (Instance)
usemap Light_Grey (Instance) (Instance)
f 75/152/4 60/12/4 74/292/4
f 81/154/4 75/152/4 114/52/4
f 81/154/4 114/52/4 212/282/4
f 75/152/4 58/159/4 60/12/4
f 58/159/4 55/158/4 201/199/4
f 58/159/4 201/199/4 92/23/4
f 84/185/2 211/60/2 91/279/2
f 82/186/2 84/185/2 91/279/2
f 123/146/2 82/186/2 76/8/2
f 59/285/2 66/190/2 123/146/2
f 68/182/2 66/190/2 93/205/2
f 68/182/2 93/205/2 202/15/2
f 123/146/2 76/8/2 59/285/2
f 136/66/1 130/194/1 209/40/1
f 139/65/1 136/66/1 209/40/1
f 124/79/3 207/147/3 128/31/3
f 124/79/3 140/81/3 207/147/3
f 209/203/4 130/202/4 129/151/4
f 129/151/4 128/201/4 207/200/4
f 207/200/4 210/161/4 129/151/4
f 210/161/4 209/203/4 129/151/4
f 34/158/4 131/197/4 208/198/4
f 34/158/4 133/159/4 131/197/4
f 166/166/5 232/341/5 231/340/5
f 233/342/5 166/166/5 165/106/5
f 164/118/5 234/343/5 233/342/5
f 164/118/5 163/162/5 234/343/5
f 235/344/5 163/162/5 162/137/5
f 235/344/5 162/137/5 161/138/5
f 235/344/5 236/345/5 163/162/5
f 163/162/5 236/345/5 234/343/5
f 233/342/5 165/106/5 164/118/5
f 233/342/5 232/341/5 166/166/5
f 161/138/5 231/340/5 235/344/5
f 161/138/5 166/166/5 231/340/5
f 233/347/1 190/346/1 188/68/1
f 188/68/1 232/172/1 233/347/1
f 188/68/1 231/348/1 232/172/1
f 188/68/1 205/349/1 231/348/1
f 231/351/2 205/350/2 204/141/2
f 204/141/2 235/352/2 231/351/2
f 204/141/2 203/353/2 235/352/2
f 198/68/3 192/349/3 234/348/3
f 236/172/3 235/347/3 198/68/3
f 235/347/3 203/346/3 198/68/3
f 234/348/3 236/172/3 198/68/3
f 191/161/4 190/355/4 233/354/4
f 234/357/4 192/356/4 191/161/4
f 233/354/4 234/357/4 191/161/4
f 173/185/2 106/208/2 195/209/2
f 173/185/2 116/186/2 106/208/2
f 108/79/1 195/147/1 106/31/1
f 108/79/1 174/81/1 195/147/1
f 118/190/2 193/207/2 100/206/2
f 118/190/2 175/182/2 193/207/2
f 176/65/3 100/194/3 193/40/3
f 176/65/3 99/66/3 100/194/3
f 51/159/4 200/199/4 96/23/4
f 98/151/4 51/159/4 62/12/4
f 87/292/4 70/152/4 98/151/4
f 89/154/4 70/152/4 110/52/4
f 89/154/4 110/52/4 216/282/4
f 98/151/4 62/12/4 87/292/4
f 51/159/4 52/158/4 200/199/4
f 15/81/1 96/78/1 200/80/1
f 15/81/1 121/79/1 96/78/1
f 196/145/2 105/144/2 104/146/2
f 104/146/2 102/143/2 194/142/2
f 194/142/2 197/141/2 104/146/2
f 197/141/2 196/145/2 104/146/2
f 179/65/3 105/194/3 196/40/3
f 179/65/3 107/66/3 105/194/3
f 101/79/1 194/147/1 102/31/1
f 101/79/1 180/81/1 194/147/1
f 21/66/1 202/64/1 93/63/1
f 21/66/1 184/65/1 202/64/1
f 27/152/4 206/193/4 126/192/4
f 27/152/4 185/154/4 206/193/4
f 187/65/1 126/194/1 206/40/1
f 187/65/1 125/66/1 126/194/1
f 122/79/3 208/147/3 131/31/3
f 122/79/3 186/81/3 208/147/3
f 57/182/2 97/205/2 199/15/2
f 57/182/2 50/190/2 97/205/2
f 50/190/2 71/186/2 72/8/2
f 71/186/2 79/185/2 189/60/2
f 71/186/2 189/60/2 109/279/2
f 50/190/2 72/8/2 49/285/2
f 97/70/1 92/62/1 201/69/1
f 219/68/1 199/67/1 97/70/1
f 219/68/1 97/70/1 201/69/1
f 218/81/3 91/78/3 211/80/3
f 218/81/3 40/79/3 91/78/3
f 113/66/3 216/64/3 110/63/3
f 113/66/3 45/65/3 216/64/3
f 114/70/3 109/62/3 189/69/3
f 214/68/3 212/67/3 114/70/3
f 214/68/3 114/70/3 189/69/3
f 77/260/6 59/241/6 76/261/6
f 77/260/6 3/243/6 59/241/6
f 8/215/6 87/214/6 62/233/6
f 64/276/6 8/215/6 62/233/6
f 74/263/6 49/235/6 72/212/6
f 74/263/6 60/240/6 49/235/6
